<?xml version="1.0" encoding="UTF-8"?>
<svg xmlns="http://www.w3.org/2000/svg" xmlns:xlink="http://www.w3.org/1999/xlink" width="854" height="480" viewBox="0 0 854 480">
<defs>
<g>
<g id="glyph-0-0">
<path d="M 0.300781 -1.53125 L 0.894531 -1.585938 C 0.921875 -1.347656 0.988281 -1.152344 1.09375 -0.996094 C 1.195312 -0.84375 1.355469 -0.722656 1.570312 -0.625 C 1.789062 -0.53125 2.035156 -0.484375 2.304688 -0.484375 C 2.546875 -0.484375 2.757812 -0.519531 2.941406 -0.59375 C 3.128906 -0.664062 3.265625 -0.761719 3.355469 -0.886719 C 3.445312 -1.011719 3.488281 -1.148438 3.488281 -1.296875 C 3.488281 -1.445312 3.445312 -1.574219 3.359375 -1.6875 C 3.273438 -1.800781 3.128906 -1.894531 2.929688 -1.96875 C 2.800781 -2.019531 2.519531 -2.097656 2.078125 -2.203125 C 1.640625 -2.308594 1.335938 -2.40625 1.160156 -2.5 C 0.929688 -2.621094 0.761719 -2.765625 0.648438 -2.945312 C 0.539062 -3.121094 0.480469 -3.320312 0.480469 -3.539062 C 0.480469 -3.777344 0.550781 -4.003906 0.6875 -4.214844 C 0.824219 -4.421875 1.023438 -4.582031 1.285156 -4.691406 C 1.546875 -4.800781 1.839844 -4.851562 2.160156 -4.851562 C 2.515625 -4.851562 2.828125 -4.796875 3.097656 -4.683594 C 3.367188 -4.570312 3.574219 -4.402344 3.71875 -4.179688 C 3.867188 -3.957031 3.945312 -3.707031 3.953125 -3.425781 L 3.347656 -3.382812 C 3.316406 -3.683594 3.207031 -3.910156 3.019531 -4.066406 C 2.832031 -4.21875 2.554688 -4.296875 2.1875 -4.296875 C 1.804688 -4.296875 1.527344 -4.226562 1.351562 -4.085938 C 1.179688 -3.945312 1.089844 -3.777344 1.089844 -3.582031 C 1.089844 -3.410156 1.152344 -3.269531 1.277344 -3.15625 C 1.398438 -3.046875 1.714844 -2.933594 2.226562 -2.816406 C 2.742188 -2.703125 3.09375 -2.601562 3.285156 -2.511719 C 3.5625 -2.386719 3.765625 -2.222656 3.898438 -2.027344 C 4.03125 -1.828125 4.097656 -1.605469 4.097656 -1.347656 C 4.097656 -1.09375 4.027344 -0.855469 3.878906 -0.628906 C 3.734375 -0.40625 3.527344 -0.230469 3.253906 -0.105469 C 2.980469 0.0195312 2.675781 0.0820312 2.335938 0.0820312 C 1.902344 0.0820312 1.539062 0.0195312 1.25 -0.105469 C 0.957031 -0.234375 0.726562 -0.421875 0.5625 -0.675781 C 0.394531 -0.929688 0.308594 -1.214844 0.300781 -1.53125 Z "/>
</g>
<g id="glyph-0-1">
<path d="M 2.695312 -0.425781 C 2.476562 -0.242188 2.269531 -0.113281 2.070312 -0.0351562 C 1.867188 0.0390625 1.652344 0.078125 1.421875 0.078125 C 1.042969 0.078125 0.75 -0.015625 0.546875 -0.199219 C 0.34375 -0.386719 0.242188 -0.621094 0.242188 -0.910156 C 0.242188 -1.082031 0.28125 -1.234375 0.355469 -1.375 C 0.433594 -1.515625 0.535156 -1.628906 0.660156 -1.710938 C 0.785156 -1.796875 0.925781 -1.859375 1.082031 -1.902344 C 1.195312 -1.933594 1.371094 -1.964844 1.601562 -1.992188 C 2.074219 -2.046875 2.421875 -2.117188 2.644531 -2.195312 C 2.648438 -2.273438 2.648438 -2.324219 2.648438 -2.347656 C 2.648438 -2.585938 2.59375 -2.753906 2.484375 -2.851562 C 2.335938 -2.984375 2.113281 -3.050781 1.816406 -3.050781 C 1.539062 -3.050781 1.335938 -3 1.207031 -2.90625 C 1.074219 -2.808594 0.976562 -2.636719 0.914062 -2.390625 L 0.339844 -2.46875 C 0.394531 -2.714844 0.480469 -2.914062 0.597656 -3.066406 C 0.71875 -3.214844 0.890625 -3.332031 1.117188 -3.414062 C 1.34375 -3.496094 1.605469 -3.535156 1.902344 -3.535156 C 2.195312 -3.535156 2.4375 -3.5 2.621094 -3.429688 C 2.804688 -3.363281 2.941406 -3.273438 3.027344 -3.167969 C 3.113281 -3.0625 3.175781 -2.929688 3.210938 -2.769531 C 3.230469 -2.671875 3.238281 -2.492188 3.238281 -2.230469 L 3.238281 -1.449219 C 3.238281 -0.902344 3.25 -0.558594 3.277344 -0.414062 C 3.300781 -0.269531 3.351562 -0.132812 3.425781 0 L 2.8125 0 C 2.75 -0.121094 2.710938 -0.265625 2.695312 -0.425781 M 2.644531 -1.734375 C 2.433594 -1.648438 2.113281 -1.574219 1.6875 -1.511719 C 1.449219 -1.480469 1.277344 -1.441406 1.179688 -1.394531 C 1.078125 -1.351562 1 -1.289062 0.945312 -1.207031 C 0.894531 -1.121094 0.867188 -1.03125 0.867188 -0.925781 C 0.867188 -0.769531 0.925781 -0.640625 1.042969 -0.539062 C 1.160156 -0.433594 1.335938 -0.378906 1.5625 -0.378906 C 1.789062 -0.378906 1.988281 -0.429688 2.164062 -0.527344 C 2.339844 -0.628906 2.46875 -0.761719 2.550781 -0.933594 C 2.613281 -1.066406 2.644531 -1.261719 2.644531 -1.519531 Z "/>
</g>
<g id="glyph-0-2">
<path d="M 0.425781 0 L 0.425781 -4.773438 L 1.011719 -4.773438 L 1.011719 0 Z "/>
</g>
<g id="glyph-0-3">
<path d="M 2.703125 0 L 2.703125 -0.507812 C 2.4375 -0.117188 2.070312 0.078125 1.609375 0.078125 C 1.402344 0.078125 1.214844 0.0390625 1.035156 -0.0390625 C 0.859375 -0.117188 0.730469 -0.214844 0.644531 -0.332031 C 0.558594 -0.453125 0.496094 -0.597656 0.460938 -0.769531 C 0.4375 -0.882812 0.425781 -1.066406 0.425781 -1.316406 L 0.425781 -3.457031 L 1.011719 -3.457031 L 1.011719 -1.539062 C 1.011719 -1.234375 1.023438 -1.027344 1.046875 -0.921875 C 1.085938 -0.765625 1.164062 -0.644531 1.28125 -0.558594 C 1.402344 -0.46875 1.550781 -0.425781 1.726562 -0.425781 C 1.902344 -0.425781 2.066406 -0.472656 2.21875 -0.5625 C 2.375 -0.652344 2.484375 -0.773438 2.546875 -0.929688 C 2.609375 -1.085938 2.644531 -1.308594 2.644531 -1.605469 L 2.644531 -3.457031 L 3.230469 -3.457031 L 3.230469 0 Z "/>
</g>
<g id="glyph-0-4">
<path d="M 1.71875 -0.523438 L 1.804688 -0.0078125 C 1.636719 0.0273438 1.492188 0.046875 1.359375 0.046875 C 1.148438 0.046875 0.984375 0.0117188 0.867188 -0.0546875 C 0.75 -0.121094 0.667969 -0.210938 0.617188 -0.320312 C 0.570312 -0.429688 0.546875 -0.660156 0.546875 -1.011719 L 0.546875 -3 L 0.117188 -3 L 0.117188 -3.457031 L 0.546875 -3.457031 L 0.546875 -4.3125 L 1.128906 -4.664062 L 1.128906 -3.457031 L 1.71875 -3.457031 L 1.71875 -3 L 1.128906 -3 L 1.128906 -0.980469 C 1.128906 -0.8125 1.140625 -0.707031 1.160156 -0.65625 C 1.179688 -0.609375 1.214844 -0.570312 1.261719 -0.542969 C 1.308594 -0.515625 1.375 -0.5 1.460938 -0.5 C 1.527344 -0.5 1.613281 -0.507812 1.71875 -0.523438 Z "/>
</g>
<g id="glyph-0-5">
</g>
<g id="glyph-0-6">
<path d="M 0.75 -1.183594 L 0.574219 -3.714844 L 0.574219 -4.773438 L 1.296875 -4.773438 L 1.296875 -3.714844 L 1.128906 -1.183594 L 0.75 -1.183594 M 0.597656 0 L 0.597656 -0.667969 L 1.273438 -0.667969 L 1.273438 0 Z "/>
</g>
</g>
</defs>
<g fill="rgb(100%, 100%, 100%)" fill-opacity="1">
<use xlink:href="#glyph-0-0" x="30" y="26.03418"/>
<use xlink:href="#glyph-0-1" x="34" y="26.03418"/>
<use xlink:href="#glyph-0-2" x="38" y="26.03418"/>
<use xlink:href="#glyph-0-3" x="39" y="26.03418"/>
<use xlink:href="#glyph-0-4" x="43" y="26.03418"/>
<use xlink:href="#glyph-0-5" x="45" y="26.03418"/>
<use xlink:href="#glyph-0-6" x="47" y="26.03418"/>
</g>
</svg>
