<?xml version="1.0" encoding="UTF-8"?>
<svg xmlns="http://www.w3.org/2000/svg" xmlns:xlink="http://www.w3.org/1999/xlink" width="1080" height="1920" viewBox="0 0 1080 1920">
<defs>
<g>
<g id="glyph-0-0">
<path d="M 8.1875 0.117188 C 7.148438 0.117188 6.191406 -0.0546875 5.316406 -0.398438 C 4.441406 -0.742188 3.683594 -1.226562 3.042969 -1.847656 C 2.402344 -2.46875 1.902344 -3.203125 1.546875 -4.042969 C 1.1875 -4.886719 1.011719 -5.808594 1.011719 -6.804688 C 1.011719 -7.804688 1.1875 -8.722656 1.546875 -9.566406 C 1.902344 -10.410156 2.40625 -11.140625 3.050781 -11.761719 C 3.699219 -12.386719 4.460938 -12.867188 5.335938 -13.210938 C 6.210938 -13.554688 7.167969 -13.726562 8.207031 -13.726562 C 9.242188 -13.726562 10.191406 -13.566406 11.054688 -13.242188 C 11.914062 -12.917969 12.652344 -12.425781 13.261719 -11.761719 L 12.367188 -10.851562 C 11.796875 -11.421875 11.167969 -11.828125 10.480469 -12.074219 C 9.792969 -12.320312 9.054688 -12.445312 8.265625 -12.445312 C 7.421875 -12.445312 6.648438 -12.304688 5.941406 -12.027344 C 5.234375 -11.746094 4.617188 -11.351562 4.09375 -10.839844 C 3.566406 -10.328125 3.160156 -9.730469 2.867188 -9.050781 C 2.578125 -8.371094 2.429688 -7.621094 2.429688 -6.804688 C 2.429688 -6 2.578125 -5.257812 2.867188 -4.570312 C 3.160156 -3.882812 3.566406 -3.28125 4.09375 -2.769531 C 4.617188 -2.257812 5.234375 -1.863281 5.941406 -1.585938 C 6.648438 -1.304688 7.414062 -1.167969 8.246094 -1.167969 C 9.023438 -1.167969 9.757812 -1.285156 10.449219 -1.515625 C 11.144531 -1.75 11.78125 -2.144531 12.367188 -2.703125 L 13.183594 -1.613281 C 12.535156 -1.042969 11.777344 -0.613281 10.90625 -0.320312 C 10.039062 -0.0273438 9.132812 0.117188 8.1875 0.117188 M 13.183594 -1.613281 L 11.800781 -1.789062 L 11.800781 -6.804688 L 13.183594 -6.804688 Z "/>
</g>
<g id="glyph-0-1">
<path d="M 1.925781 0 L 1.925781 -14.425781 L 3.304688 -14.425781 L 3.304688 -7.40625 L 3.035156 -7.933594 C 3.355469 -8.671875 3.875 -9.253906 4.589844 -9.671875 C 5.300781 -10.09375 6.152344 -10.304688 7.136719 -10.304688 C 7.964844 -10.304688 8.695312 -10.148438 9.324219 -9.828125 C 9.953125 -9.511719 10.445312 -9.027344 10.800781 -8.378906 C 11.15625 -7.730469 11.335938 -6.914062 11.335938 -5.929688 L 11.335938 0 L 9.957031 0 L 9.957031 -5.792969 C 9.957031 -6.871094 9.6875 -7.683594 9.148438 -8.234375 C 8.609375 -8.785156 7.855469 -9.0625 6.882812 -9.0625 C 6.15625 -9.0625 5.523438 -8.914062 4.988281 -8.625 C 4.449219 -8.332031 4.035156 -7.910156 3.742188 -7.359375 C 3.453125 -6.808594 3.304688 -6.144531 3.304688 -5.367188 L 3.304688 0 Z "/>
</g>
<g id="glyph-0-2">
<path d="M 6.085938 0.0976562 C 5.085938 0.0859375 4.199219 -0.144531 3.421875 -0.582031 C 2.644531 -1.023438 2.03125 -1.636719 1.585938 -2.421875 C 1.136719 -3.203125 0.914062 -4.101562 0.914062 -5.113281 C 0.902344 -6.136719 1.125 -7.035156 1.585938 -7.808594 C 2.042969 -8.578125 2.660156 -9.1875 3.433594 -9.632812 C 4.203125 -10.082031 5.085938 -10.304688 6.085938 -10.304688 C 7.097656 -10.304688 7.992188 -10.082031 8.769531 -9.632812 C 9.546875 -9.1875 10.160156 -8.574219 10.605469 -7.796875 C 11.054688 -7.019531 11.277344 -6.125 11.277344 -5.113281 C 11.289062 -4.101562 11.074219 -3.203125 10.625 -2.421875 C 10.179688 -1.636719 9.558594 -1.023438 8.769531 -0.582031 C 7.980469 -0.144531 7.085938 0.0859375 6.085938 0.0976562 M 6.085938 -1.128906 C 6.824219 -1.128906 7.480469 -1.292969 8.050781 -1.625 C 8.621094 -1.953125 9.070312 -2.421875 9.402344 -3.023438 C 9.730469 -3.625 9.902344 -4.324219 9.917969 -5.113281 C 9.902344 -5.917969 9.730469 -6.617188 9.402344 -7.214844 C 9.070312 -7.808594 8.621094 -8.273438 8.050781 -8.605469 C 7.480469 -8.933594 6.824219 -9.101562 6.085938 -9.101562 C 5.371094 -9.101562 4.730469 -8.933594 4.160156 -8.605469 C 3.589844 -8.273438 3.136719 -7.808594 2.800781 -7.214844 C 2.464844 -6.617188 2.289062 -5.917969 2.273438 -5.113281 C 2.289062 -4.324219 2.464844 -3.625 2.800781 -3.023438 C 3.136719 -2.421875 3.585938 -1.949219 4.152344 -1.613281 C 4.714844 -1.277344 5.359375 -1.113281 6.085938 -1.128906 Z "/>
</g>
<g id="glyph-0-3">
<path d="M 4.667969 0.0976562 C 3.824219 0.0976562 3.027344 -0.0234375 2.273438 -0.261719 C 1.523438 -0.503906 0.933594 -0.804688 0.503906 -1.167969 L 1.128906 -2.253906 C 1.542969 -1.945312 2.074219 -1.675781 2.722656 -1.449219 C 3.371094 -1.222656 4.050781 -1.109375 4.765625 -1.109375 C 5.734375 -1.109375 6.4375 -1.261719 6.863281 -1.566406 C 7.292969 -1.871094 7.503906 -2.273438 7.503906 -2.78125 C 7.503906 -3.15625 7.386719 -3.453125 7.144531 -3.664062 C 6.90625 -3.878906 6.589844 -4.042969 6.203125 -4.152344 C 5.8125 -4.261719 5.378906 -4.355469 4.898438 -4.433594 C 4.421875 -4.511719 3.945312 -4.601562 3.472656 -4.707031 C 2.996094 -4.808594 2.566406 -4.960938 2.175781 -5.164062 C 1.789062 -5.363281 1.472656 -5.640625 1.234375 -5.988281 C 0.996094 -6.339844 0.875 -6.804688 0.875 -7.390625 C 0.875 -7.945312 1.03125 -8.445312 1.339844 -8.886719 C 1.652344 -9.328125 2.109375 -9.671875 2.710938 -9.925781 C 3.316406 -10.179688 4.050781 -10.304688 4.917969 -10.304688 C 5.582031 -10.304688 6.242188 -10.21875 6.902344 -10.042969 C 7.5625 -9.867188 8.109375 -9.636719 8.535156 -9.351562 L 7.933594 -8.246094 C 7.480469 -8.554688 6.992188 -8.777344 6.476562 -8.914062 C 5.957031 -9.050781 5.4375 -9.121094 4.917969 -9.121094 C 4 -9.121094 3.320312 -8.960938 2.886719 -8.644531 C 2.453125 -8.324219 2.234375 -7.921875 2.234375 -7.425781 C 2.234375 -7.039062 2.355469 -6.734375 2.597656 -6.515625 C 2.835938 -6.292969 3.152344 -6.121094 3.546875 -6 C 3.945312 -5.875 4.378906 -5.773438 4.851562 -5.695312 C 5.324219 -5.621094 5.796875 -5.523438 6.269531 -5.414062 C 6.742188 -5.304688 7.179688 -5.15625 7.574219 -4.96875 C 7.96875 -4.78125 8.285156 -4.515625 8.527344 -4.171875 C 8.765625 -3.828125 8.886719 -3.375 8.886719 -2.820312 C 8.886719 -2.222656 8.71875 -1.707031 8.390625 -1.273438 C 8.058594 -0.839844 7.578125 -0.503906 6.953125 -0.261719 C 6.324219 -0.0234375 5.5625 0.0976562 4.667969 0.0976562 Z "/>
</g>
<g id="glyph-0-4">
<path d="M 5.152344 0.0976562 C 4.195312 0.0976562 3.453125 -0.160156 2.9375 -0.679688 C 2.417969 -1.199219 2.160156 -1.929688 2.160156 -2.878906 L 2.160156 -12.464844 L 3.539062 -12.464844 L 3.539062 -2.957031 C 3.539062 -2.359375 3.691406 -1.898438 3.996094 -1.574219 C 4.300781 -1.25 4.738281 -1.089844 5.308594 -1.089844 C 5.917969 -1.089844 6.421875 -1.265625 6.824219 -1.613281 L 7.3125 -0.621094 C 7.039062 -0.375 6.710938 -0.195312 6.328125 -0.078125 C 5.945312 0.0390625 5.554688 0.0976562 5.152344 0.0976562 M 0.332031 -9.0625 L 0.332031 -10.207031 L 6.648438 -10.207031 L 6.648438 -9.0625 Z "/>
</g>
<g id="glyph-0-5">
<path d="M 2.214844 0 L 2.214844 -13.609375 L 3.402344 -13.609375 L 9.625 -2.996094 L 9.003906 -2.996094 L 15.167969 -13.609375 L 16.351562 -13.609375 L 16.351562 0 L 14.972656 0 L 14.972656 -11.453125 L 15.300781 -11.453125 L 9.625 -1.730469 L 8.945312 -1.730469 L 3.226562 -11.453125 L 3.597656 -11.453125 L 3.597656 0 Z "/>
</g>
<g id="glyph-0-6">
<path d="M 6.261719 0.0976562 C 5.199219 0.0976562 4.265625 -0.125 3.460938 -0.574219 C 2.65625 -1.019531 2.027344 -1.636719 1.574219 -2.421875 C 1.121094 -3.203125 0.894531 -4.101562 0.894531 -5.113281 C 0.894531 -6.125 1.113281 -7.019531 1.546875 -7.796875 C 1.980469 -8.574219 2.578125 -9.1875 3.335938 -9.632812 C 4.09375 -10.082031 4.945312 -10.304688 5.890625 -10.304688 C 6.851562 -10.304688 7.703125 -10.089844 8.449219 -9.652344 C 9.195312 -9.21875 9.78125 -8.609375 10.207031 -7.828125 C 10.636719 -7.042969 10.851562 -6.136719 10.851562 -5.113281 C 10.851562 -5.050781 10.847656 -4.980469 10.839844 -4.910156 C 10.832031 -4.839844 10.832031 -4.765625 10.832031 -4.6875 L 1.945312 -4.6875 L 1.945312 -5.714844 L 10.089844 -5.714844 L 9.546875 -5.308594 C 9.546875 -6.046875 9.386719 -6.703125 9.070312 -7.28125 C 8.753906 -7.859375 8.320312 -8.308594 7.777344 -8.632812 C 7.234375 -8.957031 6.605469 -9.121094 5.890625 -9.121094 C 5.191406 -9.121094 4.5625 -8.957031 4.003906 -8.632812 C 3.449219 -8.308594 3.015625 -7.855469 2.703125 -7.273438 C 2.390625 -6.6875 2.234375 -6.019531 2.234375 -5.269531 L 2.234375 -5.054688 C 2.234375 -4.277344 2.40625 -3.59375 2.75 -3.003906 C 3.09375 -2.414062 3.574219 -1.953125 4.191406 -1.625 C 4.804688 -1.292969 5.507812 -1.128906 6.300781 -1.128906 C 6.921875 -1.128906 7.503906 -1.238281 8.039062 -1.457031 C 8.578125 -1.679688 9.042969 -2.015625 9.429688 -2.46875 L 10.207031 -1.574219 C 9.753906 -1.03125 9.1875 -0.617188 8.507812 -0.332031 C 7.828125 -0.046875 7.078125 0.0976562 6.261719 0.0976562 Z "/>
</g>
<g id="glyph-0-7">
<path d="M 1.925781 0 L 1.925781 -10.207031 L 3.246094 -10.207031 L 3.246094 -7.425781 L 3.109375 -7.914062 C 3.394531 -8.691406 3.875 -9.285156 4.550781 -9.691406 C 5.222656 -10.101562 6.058594 -10.304688 7.058594 -10.304688 L 7.058594 -8.964844 C 7.007812 -8.964844 6.953125 -8.96875 6.902344 -8.972656 C 6.851562 -8.980469 6.800781 -8.984375 6.746094 -8.984375 C 5.671875 -8.984375 4.828125 -8.65625 4.21875 -8 C 3.609375 -7.347656 3.304688 -6.417969 3.304688 -5.210938 L 3.304688 0 Z "/>
</g>
</g>
</defs>
<g fill="rgb(100%, 100%, 100%)" fill-opacity="1">
<use xlink:href="#glyph-0-0" x="30" y="38.821289"/>
<use xlink:href="#glyph-0-1" x="45" y="38.821289"/>
<use xlink:href="#glyph-0-2" x="58" y="38.821289"/>
<use xlink:href="#glyph-0-3" x="70" y="38.821289"/>
<use xlink:href="#glyph-0-4" x="79" y="38.821289"/>
<use xlink:href="#glyph-0-5" x="87" y="38.821289"/>
<use xlink:href="#glyph-0-6" x="106" y="38.821289"/>
<use xlink:href="#glyph-0-4" x="117" y="38.821289"/>
<use xlink:href="#glyph-0-6" x="124" y="38.821289"/>
<use xlink:href="#glyph-0-7" x="135" y="38.821289"/>
</g>
</svg>
