<?xml version="1.0" encoding="UTF-8"?>
<svg xmlns="http://www.w3.org/2000/svg" xmlns:xlink="http://www.w3.org/1999/xlink" width="1080" height="1920" viewBox="0 0 1080 1920">
<defs>
<g>
<g id="glyph-0-0">
<path d="M 6.875 -15.097656 C 5.457031 -15.613281 4.40625 -16.355469 3.722656 -17.316406 C 3.039062 -18.28125 2.695312 -19.433594 2.695312 -20.773438 C 2.695312 -22.800781 3.425781 -24.503906 4.878906 -25.882812 C 6.335938 -27.261719 8.273438 -27.953125 10.691406 -27.953125 C 13.121094 -27.953125 15.078125 -27.246094 16.558594 -25.835938 C 18.039062 -24.421875 18.78125 -22.703125 18.78125 -20.679688 C 18.78125 -19.386719 18.441406 -18.265625 17.765625 -17.308594 C 17.085938 -16.351562 16.058594 -15.613281 14.679688 -15.097656 C 16.386719 -14.539062 17.6875 -13.640625 18.582031 -12.398438 C 19.472656 -11.160156 19.917969 -9.679688 19.917969 -7.957031 C 19.917969 -5.578125 19.078125 -3.578125 17.394531 -1.957031 C 15.710938 -0.335938 13.496094 0.476562 10.746094 0.476562 C 8 0.476562 5.785156 -0.339844 4.101562 -1.964844 C 2.417969 -3.59375 1.574219 -5.621094 1.574219 -8.050781 C 1.574219 -9.863281 2.035156 -11.378906 2.953125 -12.597656 C 3.871094 -13.820312 5.175781 -14.652344 6.875 -15.097656 M 6.191406 -20.886719 C 6.191406 -19.570312 6.613281 -18.496094 7.460938 -17.660156 C 8.3125 -16.824219 9.414062 -16.40625 10.765625 -16.40625 C 12.082031 -16.40625 13.164062 -16.820312 14.003906 -17.648438 C 14.847656 -18.480469 15.265625 -19.496094 15.265625 -20.699219 C 15.265625 -21.953125 14.832031 -23.003906 13.964844 -23.859375 C 13.097656 -24.714844 12.019531 -25.140625 10.730469 -25.140625 C 9.425781 -25.140625 8.34375 -24.722656 7.480469 -23.886719 C 6.621094 -23.050781 6.191406 -22.050781 6.191406 -20.886719 M 5.089844 -8.03125 C 5.089844 -7.058594 5.320312 -6.113281 5.78125 -5.203125 C 6.246094 -4.292969 6.929688 -3.585938 7.84375 -3.085938 C 8.753906 -2.585938 9.734375 -2.335938 10.785156 -2.335938 C 12.417969 -2.335938 13.765625 -2.859375 14.832031 -3.910156 C 15.894531 -4.960938 16.425781 -6.296875 16.425781 -7.917969 C 16.425781 -9.5625 15.878906 -10.925781 14.78125 -12 C 13.6875 -13.078125 12.316406 -13.613281 10.671875 -13.613281 C 9.0625 -13.613281 7.730469 -13.082031 6.675781 -12.019531 C 5.617188 -10.957031 5.089844 -9.628906 5.089844 -8.03125 Z "/>
</g>
<g id="glyph-0-1">
<path d="M 1.613281 -13.730469 C 1.613281 -17.019531 1.953125 -19.667969 2.628906 -21.675781 C 3.308594 -23.683594 4.3125 -25.230469 5.648438 -26.320312 C 6.984375 -27.40625 8.664062 -27.953125 10.691406 -27.953125 C 12.183594 -27.953125 13.496094 -27.652344 14.621094 -27.050781 C 15.75 -26.449219 16.679688 -25.582031 17.414062 -24.449219 C 18.148438 -23.316406 18.722656 -21.933594 19.140625 -20.308594 C 19.558594 -18.683594 19.765625 -16.488281 19.765625 -13.730469 C 19.765625 -10.464844 19.433594 -7.828125 18.761719 -5.820312 C 18.089844 -3.8125 17.085938 -2.261719 15.75 -1.167969 C 14.414062 -0.0742188 12.730469 0.476562 10.691406 0.476562 C 8.007812 0.476562 5.898438 -0.488281 4.367188 -2.410156 C 2.53125 -4.726562 1.613281 -8.5 1.613281 -13.730469 M 5.128906 -13.730469 C 5.128906 -9.160156 5.660156 -6.117188 6.730469 -4.605469 C 7.800781 -3.09375 9.121094 -2.335938 10.691406 -2.335938 C 12.261719 -2.335938 13.582031 -3.09375 14.648438 -4.613281 C 15.71875 -6.132812 16.253906 -9.171875 16.253906 -13.730469 C 16.253906 -18.3125 15.71875 -21.355469 14.648438 -22.863281 C 13.582031 -24.367188 12.246094 -25.121094 10.652344 -25.121094 C 9.082031 -25.121094 7.828125 -24.457031 6.894531 -23.128906 C 5.714844 -21.433594 5.128906 -18.300781 5.128906 -13.730469 Z "/>
</g>
<g id="glyph-0-2">
<path d="M 2.257812 -21.152344 C 2.257812 -23.140625 2.757812 -24.832031 3.761719 -26.222656 C 4.761719 -27.617188 6.210938 -28.3125 8.109375 -28.3125 C 9.855469 -28.3125 11.300781 -27.6875 12.445312 -26.441406 C 13.59375 -25.195312 14.164062 -23.363281 14.164062 -20.945312 C 14.164062 -18.589844 13.585938 -16.777344 12.429688 -15.503906 C 11.269531 -14.230469 9.84375 -13.597656 8.144531 -13.597656 C 6.460938 -13.597656 5.0625 -14.222656 3.941406 -15.476562 C 2.820312 -16.730469 2.257812 -18.621094 2.257812 -21.152344 M 8.203125 -25.957031 C 7.355469 -25.957031 6.648438 -25.589844 6.085938 -24.855469 C 5.523438 -24.121094 5.242188 -22.773438 5.242188 -20.8125 C 5.242188 -19.027344 5.527344 -17.769531 6.09375 -17.042969 C 6.664062 -16.316406 7.367188 -15.949219 8.203125 -15.949219 C 9.0625 -15.949219 9.777344 -16.316406 10.339844 -17.050781 C 10.902344 -17.785156 11.183594 -19.128906 11.183594 -21.078125 C 11.183594 -22.875 10.898438 -24.136719 10.328125 -24.867188 C 9.761719 -25.59375 9.050781 -25.957031 8.203125 -25.957031 M 8.222656 1.027344 L 23.453125 -28.3125 L 26.222656 -28.3125 L 11.050781 1.027344 L 8.222656 1.027344 M 20.261719 -6.53125 C 20.261719 -8.53125 20.761719 -10.226562 21.761719 -11.613281 C 22.761719 -12.996094 24.21875 -13.691406 26.128906 -13.691406 C 27.875 -13.691406 29.320312 -13.066406 30.46875 -11.820312 C 31.613281 -10.574219 32.1875 -8.742188 32.1875 -6.324219 C 32.1875 -3.96875 31.605469 -2.15625 30.449219 -0.882812 C 29.289062 0.390625 27.855469 1.027344 26.148438 1.027344 C 24.464844 1.027344 23.0625 0.394531 21.941406 -0.863281 C 20.820312 -2.125 20.261719 -4.011719 20.261719 -6.53125 M 26.222656 -11.335938 C 25.363281 -11.335938 24.652344 -10.96875 24.085938 -10.234375 C 23.523438 -9.5 23.242188 -8.152344 23.242188 -6.191406 C 23.242188 -4.417969 23.527344 -3.164062 24.097656 -2.429688 C 24.667969 -1.695312 25.371094 -1.328125 26.203125 -1.328125 C 27.078125 -1.328125 27.796875 -1.695312 28.359375 -2.429688 C 28.921875 -3.164062 29.203125 -4.507812 29.203125 -6.457031 C 29.203125 -8.253906 28.921875 -9.515625 28.351562 -10.246094 C 27.78125 -10.972656 27.070312 -11.335938 26.222656 -11.335938 Z "/>
</g>
</g>
</defs>
<g fill="rgb(95.686275%, 24.705882%, 36.862745%)" fill-opacity="1">
<use xlink:href="#glyph-0-0" x="30" y="55.205078"/>
<use xlink:href="#glyph-0-1" x="52" y="55.205078"/>
<use xlink:href="#glyph-0-2" x="74" y="55.205078"/>
</g>
</svg>
