<?xml version="1.0" encoding="UTF-8"?>
<svg xmlns="http://www.w3.org/2000/svg" xmlns:xlink="http://www.w3.org/1999/xlink" width="1080" height="1920" viewBox="0 0 1080 1920">
<defs>
<g>
<g id="glyph-0-0">
<path d="M 0.207031 -3.894531 L 0.359375 -4.359375 C 0.703125 -4.238281 0.953125 -4.132812 1.109375 -4.042969 C 1.070312 -4.4375 1.046875 -4.707031 1.046875 -4.851562 L 1.515625 -4.851562 C 1.511719 -4.640625 1.484375 -4.371094 1.441406 -4.046875 C 1.664062 -4.160156 1.921875 -4.261719 2.210938 -4.359375 L 2.359375 -3.894531 C 2.085938 -3.804688 1.8125 -3.746094 1.550781 -3.714844 C 1.683594 -3.597656 1.867188 -3.394531 2.109375 -3.097656 L 1.71875 -2.820312 C 1.59375 -2.992188 1.445312 -3.226562 1.273438 -3.523438 C 1.113281 -3.214844 0.972656 -2.984375 0.847656 -2.820312 L 0.464844 -3.097656 C 0.71875 -3.410156 0.898438 -3.613281 1.007812 -3.714844 C 0.726562 -3.769531 0.460938 -3.828125 0.207031 -3.894531 Z "/>
</g>
</g>
</defs>
<g fill="rgb(98.431373%, 74.901961%, 14.117647%)" fill-opacity="1">
<use xlink:href="#glyph-0-0" x="30" y="26.03418"/>
</g>
</svg>
