<?xml version="1.0" encoding="UTF-8"?>
<svg xmlns="http://www.w3.org/2000/svg" xmlns:xlink="http://www.w3.org/1999/xlink" width="1080" height="1920" viewBox="0 0 1080 1920">
<defs>
<g>
<g id="glyph-0-0">
<path d="M 0.261719 0 L 0.261719 -0.339844 L 2.199219 -2.238281 C 2.378906 -2.414062 2.511719 -2.566406 2.601562 -2.695312 C 2.6875 -2.828125 2.75 -2.949219 2.78125 -3.066406 C 2.8125 -3.183594 2.828125 -3.292969 2.828125 -3.394531 C 2.828125 -3.664062 2.734375 -3.878906 2.550781 -4.035156 C 2.367188 -4.1875 2.09375 -4.265625 1.734375 -4.265625 C 1.457031 -4.265625 1.214844 -4.222656 1.003906 -4.140625 C 0.792969 -4.054688 0.609375 -3.925781 0.460938 -3.746094 L 0.121094 -4.039062 C 0.300781 -4.253906 0.535156 -4.417969 0.820312 -4.535156 C 1.105469 -4.648438 1.421875 -4.707031 1.773438 -4.707031 C 2.089844 -4.707031 2.363281 -4.65625 2.59375 -4.558594 C 2.824219 -4.457031 3.003906 -4.3125 3.128906 -4.121094 C 3.257812 -3.929688 3.320312 -3.703125 3.320312 -3.445312 C 3.320312 -3.296875 3.300781 -3.148438 3.257812 -3 C 3.214844 -2.851562 3.140625 -2.699219 3.03125 -2.535156 C 2.921875 -2.375 2.761719 -2.191406 2.554688 -1.988281 L 0.773438 -0.238281 L 0.640625 -0.425781 L 3.535156 -0.425781 L 3.535156 0 Z "/>
</g>
</g>
</defs>
<g fill="rgb(100%, 100%, 100%)" fill-opacity="1">
<use xlink:href="#glyph-0-0" x="30" y="26.453125"/>
</g>
</svg>
