<?xml version="1.0" encoding="UTF-8"?>
<svg xmlns="http://www.w3.org/2000/svg" xmlns:xlink="http://www.w3.org/1999/xlink" width="1080" height="1920" viewBox="0 0 1080 1920">
<defs>
<g>
<g id="glyph-0-0">
<path d="M 6.992188 -1.171875 L 6.992188 0 L 0.421875 0 C 0.410156 -0.292969 0.457031 -0.578125 0.5625 -0.847656 C 0.730469 -1.296875 1 -1.734375 1.367188 -2.171875 C 1.734375 -2.605469 2.265625 -3.105469 2.964844 -3.675781 C 4.042969 -4.5625 4.773438 -5.265625 5.152344 -5.78125 C 5.535156 -6.300781 5.722656 -6.789062 5.722656 -7.25 C 5.722656 -7.734375 5.550781 -8.140625 5.207031 -8.472656 C 4.859375 -8.804688 4.410156 -8.972656 3.851562 -8.972656 C 3.265625 -8.972656 2.792969 -8.796875 2.441406 -8.445312 C 2.089844 -8.089844 1.910156 -7.601562 1.90625 -6.980469 L 0.652344 -7.109375 C 0.738281 -8.042969 1.058594 -8.757812 1.621094 -9.246094 C 2.179688 -9.738281 2.933594 -9.984375 3.878906 -9.984375 C 4.832031 -9.984375 5.589844 -9.71875 6.144531 -9.191406 C 6.699219 -8.660156 6.980469 -8.003906 6.980469 -7.222656 C 6.980469 -6.824219 6.898438 -6.433594 6.734375 -6.050781 C 6.570312 -5.664062 6.300781 -5.261719 5.925781 -4.835938 C 5.546875 -4.410156 4.917969 -3.828125 4.042969 -3.085938 C 3.308594 -2.472656 2.839844 -2.054688 2.632812 -1.835938 C 2.421875 -1.613281 2.25 -1.394531 2.117188 -1.171875 Z "/>
</g>
<g id="glyph-0-1">
<path d="M 0.578125 -4.902344 C 0.578125 -6.078125 0.699219 -7.023438 0.9375 -7.742188 C 1.179688 -8.457031 1.539062 -9.011719 2.019531 -9.398438 C 2.496094 -9.789062 3.09375 -9.984375 3.816406 -9.984375 C 4.351562 -9.984375 4.820312 -9.875 5.222656 -9.660156 C 5.625 -9.445312 5.957031 -9.136719 6.21875 -8.730469 C 6.480469 -8.328125 6.6875 -7.835938 6.835938 -7.253906 C 6.984375 -6.671875 7.058594 -5.890625 7.058594 -4.902344 C 7.058594 -3.738281 6.941406 -2.796875 6.699219 -2.078125 C 6.460938 -1.363281 6.101562 -0.808594 5.625 -0.417969 C 5.148438 -0.0273438 4.546875 0.167969 3.816406 0.167969 C 2.859375 0.167969 2.105469 -0.175781 1.558594 -0.859375 C 0.902344 -1.6875 0.578125 -3.035156 0.578125 -4.902344 M 1.832031 -4.902344 C 1.832031 -3.269531 2.023438 -2.183594 2.402344 -1.644531 C 2.785156 -1.105469 3.257812 -0.835938 3.816406 -0.835938 C 4.378906 -0.835938 4.851562 -1.105469 5.230469 -1.648438 C 5.613281 -2.191406 5.804688 -3.277344 5.804688 -4.902344 C 5.804688 -6.539062 5.613281 -7.628906 5.230469 -8.164062 C 4.851562 -8.703125 4.375 -8.972656 3.804688 -8.972656 C 3.242188 -8.972656 2.796875 -8.734375 2.460938 -8.261719 C 2.042969 -7.65625 1.832031 -6.535156 1.832031 -4.902344 Z "/>
</g>
<g id="glyph-0-2">
<path d="M 0.808594 -7.554688 C 0.808594 -8.265625 0.984375 -8.867188 1.34375 -9.367188 C 1.699219 -9.863281 2.21875 -10.113281 2.894531 -10.113281 C 3.519531 -10.113281 4.035156 -9.890625 4.445312 -9.445312 C 4.855469 -9 5.058594 -8.34375 5.058594 -7.480469 C 5.058594 -6.640625 4.851562 -5.992188 4.4375 -5.539062 C 4.023438 -5.082031 3.515625 -4.855469 2.910156 -4.855469 C 2.308594 -4.855469 1.808594 -5.078125 1.40625 -5.527344 C 1.007812 -5.976562 0.808594 -6.652344 0.808594 -7.554688 M 2.929688 -9.269531 C 2.625 -9.269531 2.375 -9.140625 2.171875 -8.878906 C 1.972656 -8.617188 1.871094 -8.132812 1.871094 -7.433594 C 1.871094 -6.796875 1.972656 -6.347656 2.175781 -6.085938 C 2.378906 -5.828125 2.632812 -5.695312 2.929688 -5.695312 C 3.238281 -5.695312 3.492188 -5.828125 3.691406 -6.089844 C 3.894531 -6.351562 3.996094 -6.832031 3.996094 -7.527344 C 3.996094 -8.171875 3.894531 -8.621094 3.6875 -8.882812 C 3.484375 -9.140625 3.234375 -9.269531 2.929688 -9.269531 M 2.9375 0.367188 L 8.375 -10.113281 L 9.367188 -10.113281 L 3.945312 0.367188 L 2.9375 0.367188 M 7.234375 -2.332031 C 7.234375 -3.046875 7.414062 -3.652344 7.773438 -4.148438 C 8.128906 -4.640625 8.648438 -4.890625 9.332031 -4.890625 C 9.957031 -4.890625 10.472656 -4.667969 10.882812 -4.222656 C 11.289062 -3.777344 11.496094 -3.121094 11.496094 -2.257812 C 11.496094 -1.417969 11.289062 -0.769531 10.875 -0.316406 C 10.460938 0.140625 9.949219 0.367188 9.339844 0.367188 C 8.738281 0.367188 8.238281 0.140625 7.835938 -0.308594 C 7.4375 -0.757812 7.234375 -1.433594 7.234375 -2.332031 M 9.367188 -4.046875 C 9.058594 -4.046875 8.804688 -3.917969 8.601562 -3.65625 C 8.402344 -3.394531 8.300781 -2.910156 8.300781 -2.210938 C 8.300781 -1.578125 8.402344 -1.128906 8.605469 -0.867188 C 8.808594 -0.605469 9.0625 -0.476562 9.359375 -0.476562 C 9.671875 -0.476562 9.925781 -0.605469 10.128906 -0.867188 C 10.328125 -1.128906 10.429688 -1.609375 10.429688 -2.304688 C 10.429688 -2.949219 10.328125 -3.398438 10.125 -3.660156 C 9.921875 -3.917969 9.667969 -4.046875 9.367188 -4.046875 Z "/>
</g>
</g>
</defs>
<g fill="rgb(95.686275%, 24.705882%, 36.862745%)" fill-opacity="1">
<use xlink:href="#glyph-0-0" x="30" y="32.573242"/>
<use xlink:href="#glyph-0-1" x="38" y="32.573242"/>
<use xlink:href="#glyph-0-2" x="46" y="32.573242"/>
</g>
</svg>
