<?xml version="1.0" encoding="UTF-8"?>
<svg xmlns="http://www.w3.org/2000/svg" xmlns:xlink="http://www.w3.org/1999/xlink" width="1080" height="1920" viewBox="0 0 1080 1920">
<defs>
<g>
<g id="glyph-0-0">
<path d="M 6.296875 -4.289062 L 6.296875 -5.574219 L 10.929688 -5.578125 L 10.929688 -1.523438 C 10.21875 -0.953125 9.484375 -0.527344 8.726562 -0.242188 C 7.972656 0.0429688 7.195312 0.1875 6.398438 0.1875 C 5.328125 0.1875 4.351562 -0.0429688 3.472656 -0.503906 C 2.59375 -0.964844 1.933594 -1.628906 1.484375 -2.5 C 1.035156 -3.371094 0.8125 -4.339844 0.8125 -5.414062 C 0.8125 -6.480469 1.035156 -7.472656 1.480469 -8.394531 C 1.925781 -9.316406 2.566406 -10.003906 3.402344 -10.449219 C 4.238281 -10.898438 5.199219 -11.121094 6.289062 -11.121094 C 7.078125 -11.121094 7.792969 -10.996094 8.433594 -10.738281 C 9.070312 -10.480469 9.574219 -10.125 9.9375 -9.667969 C 10.300781 -9.210938 10.574219 -8.613281 10.765625 -7.878906 L 9.457031 -7.519531 C 9.292969 -8.078125 9.089844 -8.515625 8.847656 -8.832031 C 8.601562 -9.152344 8.253906 -9.40625 7.804688 -9.597656 C 7.351562 -9.789062 6.847656 -9.882812 6.296875 -9.882812 C 5.632812 -9.882812 5.0625 -9.785156 4.582031 -9.582031 C 4.097656 -9.378906 3.707031 -9.117188 3.414062 -8.789062 C 3.117188 -8.460938 2.886719 -8.097656 2.722656 -7.707031 C 2.445312 -7.03125 2.304688 -6.296875 2.304688 -5.503906 C 2.304688 -4.53125 2.472656 -3.714844 2.808594 -3.058594 C 3.144531 -2.402344 3.632812 -1.914062 4.273438 -1.597656 C 4.914062 -1.277344 5.597656 -1.117188 6.316406 -1.117188 C 6.945312 -1.117188 7.554688 -1.238281 8.152344 -1.480469 C 8.75 -1.722656 9.203125 -1.980469 9.511719 -2.253906 L 9.511719 -4.289062 Z "/>
</g>
<g id="glyph-0-1">
<path d="M 1.007812 0 L 1.007812 -10.9375 L 2.351562 -10.9375 L 2.351562 -7.011719 C 2.976562 -7.738281 3.765625 -8.101562 4.722656 -8.101562 C 5.308594 -8.101562 5.820312 -7.984375 6.25 -7.753906 C 6.683594 -7.523438 6.992188 -7.203125 7.179688 -6.796875 C 7.367188 -6.386719 7.460938 -5.796875 7.460938 -5.019531 L 7.460938 0 L 6.117188 0 L 6.117188 -5.019531 C 6.117188 -5.691406 5.972656 -6.179688 5.679688 -6.484375 C 5.390625 -6.792969 4.976562 -6.945312 4.445312 -6.945312 C 4.046875 -6.945312 3.675781 -6.839844 3.324219 -6.636719 C 2.972656 -6.429688 2.722656 -6.148438 2.574219 -5.796875 C 2.425781 -5.441406 2.351562 -4.957031 2.351562 -4.335938 L 2.351562 0 Z "/>
</g>
<g id="glyph-0-2">
<path d="M 0.507812 -3.960938 C 0.507812 -5.429688 0.914062 -6.515625 1.730469 -7.222656 C 2.410156 -7.808594 3.242188 -8.101562 4.222656 -8.101562 C 5.3125 -8.101562 6.203125 -7.746094 6.894531 -7.03125 C 7.582031 -6.316406 7.929688 -5.332031 7.929688 -4.074219 C 7.929688 -3.054688 7.777344 -2.25 7.472656 -1.667969 C 7.164062 -1.082031 6.71875 -0.628906 6.136719 -0.304688 C 5.550781 0.015625 4.914062 0.179688 4.222656 0.179688 C 3.113281 0.179688 2.214844 -0.175781 1.53125 -0.886719 C 0.847656 -1.597656 0.507812 -2.625 0.507812 -3.960938 M 1.886719 -3.960938 C 1.886719 -2.945312 2.109375 -2.1875 2.550781 -1.683594 C 2.992188 -1.175781 3.550781 -0.925781 4.222656 -0.925781 C 4.886719 -0.925781 5.441406 -1.179688 5.886719 -1.6875 C 6.328125 -2.191406 6.550781 -2.964844 6.550781 -4.003906 C 6.550781 -4.984375 6.328125 -5.726562 5.882812 -6.234375 C 5.4375 -6.738281 4.882812 -6.988281 4.222656 -6.988281 C 3.550781 -6.988281 2.992188 -6.738281 2.550781 -6.234375 C 2.109375 -5.734375 1.886719 -4.976562 1.886719 -3.960938 Z "/>
</g>
<g id="glyph-0-3">
<path d="M 0.46875 -2.363281 L 1.796875 -2.574219 C 1.871094 -2.042969 2.078125 -1.632812 2.421875 -1.351562 C 2.761719 -1.066406 3.238281 -0.925781 3.847656 -0.925781 C 4.464844 -0.925781 4.921875 -1.050781 5.222656 -1.300781 C 5.519531 -1.554688 5.667969 -1.847656 5.667969 -2.1875 C 5.667969 -2.488281 5.539062 -2.726562 5.273438 -2.902344 C 5.089844 -3.019531 4.632812 -3.171875 3.902344 -3.355469 C 2.917969 -3.605469 2.234375 -3.820312 1.855469 -4.003906 C 1.472656 -4.183594 1.183594 -4.433594 0.988281 -4.753906 C 0.792969 -5.078125 0.695312 -5.429688 0.695312 -5.820312 C 0.695312 -6.171875 0.773438 -6.5 0.9375 -6.800781 C 1.097656 -7.101562 1.316406 -7.351562 1.597656 -7.550781 C 1.804688 -7.703125 2.089844 -7.832031 2.449219 -7.941406 C 2.8125 -8.046875 3.199219 -8.101562 3.609375 -8.101562 C 4.230469 -8.101562 4.777344 -8.011719 5.246094 -7.832031 C 5.71875 -7.652344 6.066406 -7.410156 6.289062 -7.105469 C 6.511719 -6.800781 6.667969 -6.390625 6.75 -5.878906 L 5.4375 -5.699219 C 5.378906 -6.105469 5.207031 -6.425781 4.917969 -6.652344 C 4.632812 -6.882812 4.230469 -6.996094 3.707031 -6.996094 C 3.089844 -6.996094 2.652344 -6.894531 2.386719 -6.691406 C 2.125 -6.488281 1.992188 -6.25 1.992188 -5.976562 C 1.992188 -5.800781 2.046875 -5.644531 2.15625 -5.503906 C 2.265625 -5.359375 2.4375 -5.242188 2.671875 -5.148438 C 2.804688 -5.097656 3.199219 -4.984375 3.855469 -4.804688 C 4.804688 -4.550781 5.46875 -4.34375 5.84375 -4.179688 C 6.21875 -4.019531 6.515625 -3.785156 6.730469 -3.476562 C 6.941406 -3.167969 7.050781 -2.785156 7.050781 -2.328125 C 7.050781 -1.878906 6.917969 -1.457031 6.65625 -1.0625 C 6.398438 -0.667969 6.019531 -0.363281 5.527344 -0.144531 C 5.035156 0.0703125 4.476562 0.179688 3.855469 0.179688 C 2.828125 0.179688 2.042969 -0.0351562 1.503906 -0.460938 C 0.964844 -0.890625 0.621094 -1.523438 0.46875 -2.363281 Z "/>
</g>
<g id="glyph-0-4">
<path d="M 3.9375 -1.199219 L 4.132812 -0.015625 C 3.753906 0.0664062 3.417969 0.105469 3.117188 0.105469 C 2.628906 0.105469 2.253906 0.0273438 1.984375 -0.125 C 1.714844 -0.28125 1.527344 -0.484375 1.417969 -0.734375 C 1.308594 -0.984375 1.253906 -1.515625 1.253906 -2.320312 L 1.253906 -6.878906 L 0.269531 -6.878906 L 0.269531 -7.921875 L 1.253906 -7.921875 L 1.253906 -9.882812 L 2.589844 -10.691406 L 2.589844 -7.921875 L 3.9375 -7.921875 L 3.9375 -6.878906 L 2.589844 -6.878906 L 2.589844 -2.246094 C 2.589844 -1.863281 2.613281 -1.617188 2.660156 -1.507812 C 2.707031 -1.398438 2.785156 -1.308594 2.890625 -1.246094 C 2.996094 -1.179688 3.152344 -1.148438 3.347656 -1.148438 C 3.5 -1.148438 3.695312 -1.167969 3.9375 -1.199219 Z "/>
</g>
<g id="glyph-0-5">
<path d="M 1.132812 0 L 1.132812 -10.9375 L 3.3125 -10.9375 L 5.902344 -3.191406 C 6.140625 -2.472656 6.3125 -1.933594 6.421875 -1.574219 C 6.546875 -1.972656 6.742188 -2.554688 7.003906 -3.328125 L 9.621094 -10.9375 L 11.570312 -10.9375 L 11.570312 0 L 10.175781 0 L 10.175781 -9.152344 L 6.996094 0 L 5.691406 0 L 2.527344 -9.308594 L 2.527344 0 Z "/>
</g>
<g id="glyph-0-6">
<path d="M 6.429688 -2.550781 L 7.816406 -2.378906 C 7.597656 -1.570312 7.195312 -0.941406 6.601562 -0.492188 C 6.011719 -0.0429688 5.253906 0.179688 4.335938 0.179688 C 3.175781 0.179688 2.257812 -0.179688 1.578125 -0.890625 C 0.898438 -1.605469 0.558594 -2.605469 0.558594 -3.894531 C 0.558594 -5.226562 0.902344 -6.261719 1.589844 -6.996094 C 2.273438 -7.734375 3.164062 -8.101562 4.257812 -8.101562 C 5.320312 -8.101562 6.183594 -7.742188 6.855469 -7.019531 C 7.527344 -6.296875 7.863281 -5.285156 7.863281 -3.976562 C 7.863281 -3.894531 7.859375 -3.777344 7.855469 -3.617188 L 1.945312 -3.617188 C 1.996094 -2.746094 2.242188 -2.082031 2.683594 -1.617188 C 3.128906 -1.15625 3.679688 -0.925781 4.339844 -0.925781 C 4.832031 -0.925781 5.253906 -1.054688 5.601562 -1.3125 C 5.949219 -1.570312 6.226562 -1.984375 6.429688 -2.550781 M 2.023438 -4.722656 L 6.445312 -4.722656 C 6.386719 -5.386719 6.214844 -5.886719 5.9375 -6.222656 C 5.511719 -6.738281 4.957031 -6.996094 4.273438 -6.996094 C 3.65625 -6.996094 3.140625 -6.789062 2.71875 -6.378906 C 2.296875 -5.964844 2.066406 -5.414062 2.023438 -4.722656 Z "/>
</g>
<g id="glyph-0-7">
<path d="M 0.992188 0 L 0.992188 -7.921875 L 2.199219 -7.921875 L 2.199219 -6.722656 C 2.507812 -7.28125 2.792969 -7.652344 3.054688 -7.832031 C 3.316406 -8.011719 3.601562 -8.101562 3.917969 -8.101562 C 4.367188 -8.101562 4.828125 -7.957031 5.296875 -7.667969 L 4.832031 -6.421875 C 4.503906 -6.617188 4.175781 -6.714844 3.847656 -6.714844 C 3.554688 -6.714844 3.292969 -6.625 3.058594 -6.449219 C 2.824219 -6.273438 2.65625 -6.027344 2.558594 -5.714844 C 2.410156 -5.238281 2.335938 -4.714844 2.335938 -4.148438 L 2.335938 0 Z "/>
</g>
</g>
</defs>
<g fill="rgb(100%, 100%, 100%)" fill-opacity="1">
<use xlink:href="#glyph-0-0" x="30" y="33.830078"/>
<use xlink:href="#glyph-0-1" x="42" y="33.830078"/>
<use xlink:href="#glyph-0-2" x="50" y="33.830078"/>
<use xlink:href="#glyph-0-3" x="58" y="33.830078"/>
<use xlink:href="#glyph-0-4" x="66" y="33.830078"/>
<use xlink:href="#glyph-0-5" x="70" y="33.830078"/>
<use xlink:href="#glyph-0-6" x="83" y="33.830078"/>
<use xlink:href="#glyph-0-4" x="91" y="33.830078"/>
<use xlink:href="#glyph-0-6" x="95" y="33.830078"/>
<use xlink:href="#glyph-0-7" x="103" y="33.830078"/>
</g>
</svg>
