<?xml version="1.0" encoding="UTF-8"?>
<svg xmlns="http://www.w3.org/2000/svg" xmlns:xlink="http://www.w3.org/1999/xlink" width="1080" height="1920" viewBox="0 0 1080 1920">
<defs>
<g>
<g id="glyph-0-0">
<path d="M 0.234375 0 L 0.234375 -2.1875 L 1.0625 -2.1875 C 1.207031 -2.1875 1.316406 -2.179688 1.394531 -2.167969 C 1.5 -2.148438 1.589844 -2.113281 1.664062 -2.0625 C 1.738281 -2.015625 1.792969 -1.945312 1.839844 -1.851562 C 1.882812 -1.761719 1.90625 -1.664062 1.90625 -1.554688 C 1.90625 -1.367188 1.847656 -1.210938 1.726562 -1.082031 C 1.609375 -0.953125 1.394531 -0.890625 1.085938 -0.890625 L 0.523438 -0.890625 L 0.523438 0 L 0.234375 0 M 0.523438 -1.148438 L 1.089844 -1.148438 C 1.277344 -1.148438 1.410156 -1.183594 1.488281 -1.25 C 1.566406 -1.320312 1.605469 -1.417969 1.605469 -1.546875 C 1.605469 -1.636719 1.582031 -1.714844 1.539062 -1.78125 C 1.492188 -1.847656 1.429688 -1.890625 1.355469 -1.910156 C 1.304688 -1.921875 1.214844 -1.929688 1.085938 -1.929688 L 0.523438 -1.929688 Z "/>
</g>
<g id="glyph-0-1">
<path d="M 1.234375 -0.195312 C 1.136719 -0.109375 1.039062 -0.0507812 0.949219 -0.015625 C 0.855469 0.0195312 0.757812 0.0351562 0.652344 0.0351562 C 0.476562 0.0351562 0.34375 -0.0078125 0.25 -0.0898438 C 0.15625 -0.175781 0.109375 -0.285156 0.109375 -0.417969 C 0.109375 -0.496094 0.128906 -0.566406 0.164062 -0.628906 C 0.199219 -0.695312 0.246094 -0.746094 0.300781 -0.785156 C 0.359375 -0.824219 0.421875 -0.851562 0.496094 -0.871094 C 0.546875 -0.886719 0.628906 -0.898438 0.734375 -0.914062 C 0.949219 -0.9375 1.109375 -0.96875 1.214844 -1.003906 C 1.214844 -1.042969 1.214844 -1.066406 1.214844 -1.074219 C 1.214844 -1.183594 1.1875 -1.261719 1.136719 -1.308594 C 1.070312 -1.367188 0.96875 -1.398438 0.832031 -1.398438 C 0.707031 -1.398438 0.613281 -1.375 0.554688 -1.332031 C 0.492188 -1.289062 0.449219 -1.210938 0.417969 -1.097656 L 0.15625 -1.132812 C 0.179688 -1.246094 0.21875 -1.335938 0.273438 -1.40625 C 0.328125 -1.472656 0.410156 -1.527344 0.511719 -1.566406 C 0.617188 -1.601562 0.734375 -1.621094 0.871094 -1.621094 C 1.007812 -1.621094 1.117188 -1.605469 1.203125 -1.574219 C 1.285156 -1.539062 1.347656 -1.5 1.386719 -1.453125 C 1.425781 -1.40625 1.457031 -1.34375 1.472656 -1.269531 C 1.480469 -1.222656 1.484375 -1.140625 1.484375 -1.023438 L 1.484375 -0.664062 C 1.484375 -0.414062 1.492188 -0.257812 1.5 -0.191406 C 1.511719 -0.125 1.535156 -0.0625 1.570312 0 L 1.289062 0 C 1.261719 -0.0546875 1.242188 -0.121094 1.234375 -0.195312 M 1.214844 -0.796875 C 1.117188 -0.753906 0.96875 -0.722656 0.773438 -0.695312 C 0.664062 -0.679688 0.585938 -0.660156 0.539062 -0.640625 C 0.496094 -0.621094 0.460938 -0.589844 0.433594 -0.554688 C 0.410156 -0.515625 0.398438 -0.472656 0.398438 -0.425781 C 0.398438 -0.355469 0.425781 -0.292969 0.476562 -0.246094 C 0.53125 -0.199219 0.613281 -0.175781 0.714844 -0.175781 C 0.820312 -0.175781 0.910156 -0.195312 0.992188 -0.242188 C 1.074219 -0.289062 1.132812 -0.351562 1.167969 -0.429688 C 1.199219 -0.488281 1.214844 -0.578125 1.214844 -0.695312 Z "/>
</g>
<g id="glyph-0-2">
<path d="M 0.09375 -0.472656 L 0.359375 -0.515625 C 0.375 -0.410156 0.417969 -0.328125 0.484375 -0.269531 C 0.550781 -0.214844 0.648438 -0.183594 0.769531 -0.183594 C 0.894531 -0.183594 0.984375 -0.210938 1.042969 -0.261719 C 1.105469 -0.3125 1.132812 -0.371094 1.132812 -0.4375 C 1.132812 -0.496094 1.109375 -0.546875 1.054688 -0.582031 C 1.019531 -0.605469 0.925781 -0.632812 0.78125 -0.671875 C 0.582031 -0.722656 0.445312 -0.765625 0.371094 -0.800781 C 0.292969 -0.835938 0.238281 -0.886719 0.199219 -0.953125 C 0.160156 -1.015625 0.140625 -1.085938 0.140625 -1.164062 C 0.140625 -1.234375 0.15625 -1.300781 0.1875 -1.359375 C 0.21875 -1.421875 0.261719 -1.46875 0.320312 -1.511719 C 0.359375 -1.539062 0.417969 -1.566406 0.488281 -1.589844 C 0.5625 -1.609375 0.640625 -1.621094 0.722656 -1.621094 C 0.847656 -1.621094 0.957031 -1.601562 1.050781 -1.566406 C 1.144531 -1.53125 1.214844 -1.484375 1.257812 -1.421875 C 1.300781 -1.359375 1.332031 -1.277344 1.351562 -1.175781 L 1.085938 -1.140625 C 1.074219 -1.222656 1.042969 -1.285156 0.984375 -1.332031 C 0.925781 -1.375 0.847656 -1.398438 0.742188 -1.398438 C 0.617188 -1.398438 0.53125 -1.378906 0.476562 -1.339844 C 0.425781 -1.296875 0.398438 -1.25 0.398438 -1.195312 C 0.398438 -1.160156 0.410156 -1.128906 0.429688 -1.101562 C 0.453125 -1.074219 0.488281 -1.046875 0.535156 -1.03125 C 0.5625 -1.019531 0.640625 -0.996094 0.769531 -0.960938 C 0.960938 -0.910156 1.09375 -0.867188 1.167969 -0.835938 C 1.246094 -0.804688 1.304688 -0.757812 1.347656 -0.695312 C 1.390625 -0.632812 1.410156 -0.558594 1.410156 -0.464844 C 1.410156 -0.375 1.382812 -0.292969 1.332031 -0.210938 C 1.28125 -0.132812 1.203125 -0.0742188 1.105469 -0.0273438 C 1.007812 0.015625 0.894531 0.0351562 0.769531 0.0351562 C 0.566406 0.0351562 0.410156 -0.0078125 0.300781 -0.09375 C 0.191406 -0.179688 0.125 -0.304688 0.09375 -0.472656 Z "/>
</g>
<g id="glyph-0-3">
<path d="M 1.285156 -0.511719 L 1.5625 -0.476562 C 1.519531 -0.3125 1.4375 -0.1875 1.320312 -0.0976562 C 1.203125 -0.0078125 1.050781 0.0351562 0.867188 0.0351562 C 0.636719 0.0351562 0.453125 -0.0351562 0.316406 -0.179688 C 0.179688 -0.320312 0.113281 -0.519531 0.113281 -0.777344 C 0.113281 -1.046875 0.179688 -1.253906 0.316406 -1.398438 C 0.457031 -1.546875 0.632812 -1.621094 0.851562 -1.621094 C 1.0625 -1.621094 1.238281 -1.546875 1.371094 -1.402344 C 1.503906 -1.261719 1.574219 -1.058594 1.574219 -0.796875 C 1.574219 -0.78125 1.570312 -0.753906 1.570312 -0.722656 L 0.390625 -0.722656 C 0.398438 -0.550781 0.449219 -0.417969 0.539062 -0.324219 C 0.625 -0.230469 0.734375 -0.183594 0.867188 -0.183594 C 0.96875 -0.183594 1.050781 -0.210938 1.121094 -0.261719 C 1.191406 -0.3125 1.246094 -0.398438 1.285156 -0.511719 M 0.40625 -0.945312 L 1.289062 -0.945312 C 1.277344 -1.078125 1.242188 -1.179688 1.1875 -1.246094 C 1.101562 -1.347656 0.992188 -1.398438 0.855469 -1.398438 C 0.730469 -1.398438 0.628906 -1.359375 0.542969 -1.277344 C 0.460938 -1.191406 0.414062 -1.082031 0.40625 -0.945312 Z "/>
</g>
<g id="glyph-0-4">
</g>
<g id="glyph-0-5">
<path d="M 0.203125 0 L 0.203125 -1.585938 L 0.441406 -1.585938 L 0.441406 -1.359375 C 0.558594 -1.535156 0.726562 -1.621094 0.949219 -1.621094 C 1.042969 -1.621094 1.128906 -1.601562 1.210938 -1.570312 C 1.289062 -1.535156 1.351562 -1.488281 1.390625 -1.433594 C 1.429688 -1.378906 1.457031 -1.3125 1.472656 -1.234375 C 1.484375 -1.1875 1.488281 -1.097656 1.488281 -0.972656 L 1.488281 0 L 1.21875 0 L 1.21875 -0.964844 C 1.21875 -1.074219 1.210938 -1.15625 1.1875 -1.210938 C 1.167969 -1.261719 1.132812 -1.308594 1.078125 -1.339844 C 1.023438 -1.371094 0.960938 -1.386719 0.890625 -1.386719 C 0.777344 -1.386719 0.675781 -1.351562 0.59375 -1.277344 C 0.511719 -1.207031 0.46875 -1.070312 0.46875 -0.867188 L 0.46875 0 Z "/>
</g>
<g id="glyph-0-6">
<path d="M 0.203125 0 L 0.203125 -1.585938 L 0.441406 -1.585938 L 0.441406 -1.363281 C 0.492188 -1.441406 0.558594 -1.503906 0.640625 -1.550781 C 0.722656 -1.597656 0.816406 -1.621094 0.921875 -1.621094 C 1.039062 -1.621094 1.136719 -1.597656 1.210938 -1.546875 C 1.285156 -1.5 1.339844 -1.429688 1.371094 -1.34375 C 1.496094 -1.527344 1.660156 -1.621094 1.859375 -1.621094 C 2.015625 -1.621094 2.136719 -1.578125 2.222656 -1.488281 C 2.304688 -1.402344 2.347656 -1.269531 2.347656 -1.085938 L 2.347656 0 L 2.082031 0 L 2.082031 -1 C 2.082031 -1.105469 2.074219 -1.183594 2.054688 -1.230469 C 2.039062 -1.277344 2.007812 -1.316406 1.960938 -1.34375 C 1.914062 -1.375 1.859375 -1.386719 1.800781 -1.386719 C 1.6875 -1.386719 1.59375 -1.351562 1.523438 -1.277344 C 1.449219 -1.203125 1.410156 -1.082031 1.410156 -0.921875 L 1.410156 0 L 1.144531 0 L 1.144531 -1.03125 C 1.144531 -1.148438 1.121094 -1.238281 1.078125 -1.296875 C 1.035156 -1.359375 0.960938 -1.386719 0.863281 -1.386719 C 0.785156 -1.386719 0.71875 -1.367188 0.652344 -1.328125 C 0.589844 -1.289062 0.542969 -1.230469 0.511719 -1.152344 C 0.484375 -1.078125 0.46875 -0.964844 0.46875 -0.820312 L 0.46875 0 Z "/>
</g>
<g id="glyph-0-7">
<path d="M 0.101562 -0.792969 C 0.101562 -1.085938 0.183594 -1.304688 0.347656 -1.445312 C 0.484375 -1.5625 0.648438 -1.621094 0.84375 -1.621094 C 1.0625 -1.621094 1.242188 -1.550781 1.378906 -1.40625 C 1.515625 -1.261719 1.585938 -1.066406 1.585938 -0.816406 C 1.585938 -0.609375 1.554688 -0.449219 1.496094 -0.332031 C 1.433594 -0.214844 1.34375 -0.125 1.226562 -0.0625 C 1.109375 0.00390625 0.984375 0.0351562 0.84375 0.0351562 C 0.621094 0.0351562 0.445312 -0.0351562 0.308594 -0.175781 C 0.167969 -0.320312 0.101562 -0.523438 0.101562 -0.792969 M 0.378906 -0.792969 C 0.378906 -0.589844 0.421875 -0.4375 0.511719 -0.335938 C 0.597656 -0.234375 0.710938 -0.183594 0.84375 -0.183594 C 0.976562 -0.183594 1.089844 -0.234375 1.175781 -0.335938 C 1.265625 -0.4375 1.308594 -0.59375 1.308594 -0.800781 C 1.308594 -0.996094 1.265625 -1.144531 1.175781 -1.246094 C 1.085938 -1.347656 0.976562 -1.398438 0.84375 -1.398438 C 0.710938 -1.398438 0.597656 -1.347656 0.511719 -1.246094 C 0.421875 -1.148438 0.378906 -0.996094 0.378906 -0.792969 Z "/>
</g>
<g id="glyph-0-8">
<path d="M 1.230469 0 L 1.230469 -0.199219 C 1.128906 -0.0429688 0.980469 0.0351562 0.785156 0.0351562 C 0.660156 0.0351562 0.542969 0 0.4375 -0.0703125 C 0.332031 -0.136719 0.25 -0.234375 0.191406 -0.359375 C 0.132812 -0.484375 0.105469 -0.628906 0.105469 -0.789062 C 0.105469 -0.949219 0.128906 -1.09375 0.183594 -1.222656 C 0.234375 -1.351562 0.316406 -1.449219 0.421875 -1.515625 C 0.527344 -1.585938 0.644531 -1.621094 0.773438 -1.621094 C 0.871094 -1.621094 0.953125 -1.601562 1.03125 -1.558594 C 1.105469 -1.519531 1.164062 -1.46875 1.210938 -1.402344 L 1.210938 -2.1875 L 1.480469 -2.1875 L 1.480469 0 L 1.230469 0 M 0.378906 -0.789062 C 0.378906 -0.589844 0.421875 -0.4375 0.507812 -0.335938 C 0.59375 -0.234375 0.695312 -0.183594 0.8125 -0.183594 C 0.929688 -0.183594 1.027344 -0.234375 1.109375 -0.328125 C 1.191406 -0.425781 1.234375 -0.570312 1.234375 -0.769531 C 1.234375 -0.984375 1.191406 -1.144531 1.109375 -1.246094 C 1.023438 -1.347656 0.921875 -1.398438 0.800781 -1.398438 C 0.679688 -1.398438 0.582031 -1.347656 0.5 -1.25 C 0.421875 -1.15625 0.378906 -1 0.378906 -0.789062 Z "/>
</g>
<g id="glyph-0-9">
<path d="M 0.203125 -1.878906 L 0.203125 -2.1875 L 0.472656 -2.1875 L 0.472656 -1.878906 L 0.203125 -1.878906 M 0.203125 0 L 0.203125 -1.585938 L 0.472656 -1.585938 L 0.472656 0 Z "/>
</g>
<g id="glyph-0-10">
<path d="M 0.199219 0 L 0.199219 -1.585938 L 0.441406 -1.585938 L 0.441406 -1.34375 C 0.5 -1.457031 0.558594 -1.53125 0.609375 -1.566406 C 0.664062 -1.601562 0.722656 -1.621094 0.785156 -1.621094 C 0.875 -1.621094 0.964844 -1.589844 1.058594 -1.535156 L 0.96875 -1.285156 C 0.902344 -1.324219 0.835938 -1.34375 0.769531 -1.34375 C 0.710938 -1.34375 0.660156 -1.324219 0.613281 -1.289062 C 0.566406 -1.253906 0.53125 -1.207031 0.511719 -1.144531 C 0.480469 -1.046875 0.46875 -0.941406 0.46875 -0.828125 L 0.46875 0 Z "/>
</g>
</g>
</defs>
<g fill="rgb(81.960784%, 83.529412%, 85.882353%)" fill-opacity="1">
<use xlink:href="#glyph-0-0" x="30" y="22.766602"/>
<use xlink:href="#glyph-0-1" x="32" y="22.766602"/>
<use xlink:href="#glyph-0-2" x="34" y="22.766602"/>
<use xlink:href="#glyph-0-2" x="36" y="22.766602"/>
<use xlink:href="#glyph-0-3" x="38" y="22.766602"/>
<use xlink:href="#glyph-0-4" x="40" y="22.766602"/>
<use xlink:href="#glyph-0-3" x="41" y="22.766602"/>
<use xlink:href="#glyph-0-5" x="43" y="22.766602"/>
<use xlink:href="#glyph-0-4" x="45" y="22.766602"/>
<use xlink:href="#glyph-0-6" x="46" y="22.766602"/>
<use xlink:href="#glyph-0-7" x="49" y="22.766602"/>
<use xlink:href="#glyph-0-8" x="51" y="22.766602"/>
<use xlink:href="#glyph-0-3" x="53" y="22.766602"/>
<use xlink:href="#glyph-0-4" x="55" y="22.766602"/>
<use xlink:href="#glyph-0-6" x="56" y="22.766602"/>
<use xlink:href="#glyph-0-9" x="59" y="22.766602"/>
<use xlink:href="#glyph-0-10" x="60" y="22.766602"/>
<use xlink:href="#glyph-0-7" x="61" y="22.766602"/>
<use xlink:href="#glyph-0-9" x="63" y="22.766602"/>
<use xlink:href="#glyph-0-10" x="64" y="22.766602"/>
</g>
</svg>
