<?xml version="1.0" encoding="UTF-8"?>
<svg xmlns="http://www.w3.org/2000/svg" xmlns:xlink="http://www.w3.org/1999/xlink" width="1080" height="1920" viewBox="0 0 1080 1920">
<defs>
<g>
<g id="glyph-0-0">
<path d="M 0.136719 -0.703125 L 0.410156 -0.726562 C 0.421875 -0.617188 0.453125 -0.527344 0.5 -0.457031 C 0.546875 -0.386719 0.621094 -0.332031 0.722656 -0.289062 C 0.820312 -0.242188 0.933594 -0.222656 1.054688 -0.222656 C 1.167969 -0.222656 1.265625 -0.238281 1.347656 -0.273438 C 1.433594 -0.304688 1.496094 -0.347656 1.539062 -0.40625 C 1.578125 -0.464844 1.601562 -0.527344 1.601562 -0.59375 C 1.601562 -0.664062 1.578125 -0.722656 1.539062 -0.773438 C 1.5 -0.824219 1.433594 -0.867188 1.34375 -0.902344 C 1.285156 -0.925781 1.15625 -0.960938 0.953125 -1.007812 C 0.753906 -1.058594 0.613281 -1.101562 0.53125 -1.144531 C 0.425781 -1.199219 0.347656 -1.269531 0.296875 -1.351562 C 0.246094 -1.429688 0.222656 -1.523438 0.222656 -1.621094 C 0.222656 -1.734375 0.253906 -1.835938 0.316406 -1.929688 C 0.378906 -2.027344 0.46875 -2.101562 0.589844 -2.148438 C 0.710938 -2.199219 0.84375 -2.226562 0.992188 -2.226562 C 1.152344 -2.226562 1.296875 -2.199219 1.417969 -2.148438 C 1.542969 -2.09375 1.640625 -2.015625 1.707031 -1.914062 C 1.773438 -1.816406 1.808594 -1.699219 1.8125 -1.570312 L 1.535156 -1.550781 C 1.519531 -1.6875 1.46875 -1.792969 1.382812 -1.863281 C 1.296875 -1.933594 1.171875 -1.96875 1.003906 -1.96875 C 0.828125 -1.96875 0.699219 -1.9375 0.621094 -1.875 C 0.539062 -1.808594 0.5 -1.730469 0.5 -1.640625 C 0.5 -1.5625 0.527344 -1.5 0.585938 -1.449219 C 0.640625 -1.398438 0.785156 -1.34375 1.019531 -1.292969 C 1.257812 -1.238281 1.417969 -1.191406 1.503906 -1.152344 C 1.632812 -1.09375 1.726562 -1.019531 1.789062 -0.929688 C 1.847656 -0.839844 1.878906 -0.734375 1.878906 -0.617188 C 1.878906 -0.5 1.84375 -0.390625 1.777344 -0.289062 C 1.710938 -0.1875 1.617188 -0.105469 1.492188 -0.046875 C 1.367188 0.0078125 1.226562 0.0390625 1.070312 0.0390625 C 0.871094 0.0390625 0.707031 0.0078125 0.570312 -0.0507812 C 0.4375 -0.105469 0.332031 -0.195312 0.257812 -0.308594 C 0.179688 -0.425781 0.140625 -0.554688 0.136719 -0.703125 Z "/>
</g>
<g id="glyph-0-1">
<path d="M 0.203125 -1.414062 L 0.132812 -1.820312 L 0.132812 -2.1875 L 0.441406 -2.1875 L 0.441406 -1.820312 L 0.367188 -1.414062 Z "/>
</g>
<g id="glyph-0-2">
<path d="M 0.203125 -1.878906 L 0.203125 -2.1875 L 0.472656 -2.1875 L 0.472656 -1.878906 L 0.203125 -1.878906 M 0.203125 0 L 0.203125 -1.585938 L 0.472656 -1.585938 L 0.472656 0 Z "/>
</g>
<g id="glyph-0-3">
<path d="M 0.195312 0 L 0.195312 -2.1875 L 0.464844 -2.1875 L 0.464844 0 Z "/>
</g>
<g id="glyph-0-4">
</g>
<g id="glyph-0-5">
<path d="M 0.203125 0 L 0.203125 -1.585938 L 0.441406 -1.585938 L 0.441406 -1.359375 C 0.558594 -1.535156 0.726562 -1.621094 0.949219 -1.621094 C 1.042969 -1.621094 1.128906 -1.601562 1.210938 -1.570312 C 1.289062 -1.535156 1.351562 -1.488281 1.390625 -1.433594 C 1.429688 -1.378906 1.457031 -1.3125 1.472656 -1.234375 C 1.484375 -1.1875 1.488281 -1.097656 1.488281 -0.972656 L 1.488281 0 L 1.21875 0 L 1.21875 -0.964844 C 1.21875 -1.074219 1.210938 -1.15625 1.1875 -1.210938 C 1.167969 -1.261719 1.132812 -1.308594 1.078125 -1.339844 C 1.023438 -1.371094 0.960938 -1.386719 0.890625 -1.386719 C 0.777344 -1.386719 0.675781 -1.351562 0.59375 -1.277344 C 0.511719 -1.207031 0.46875 -1.070312 0.46875 -0.867188 L 0.46875 0 Z "/>
</g>
<g id="glyph-0-6">
<path d="M 1.285156 -0.511719 L 1.5625 -0.476562 C 1.519531 -0.3125 1.4375 -0.1875 1.320312 -0.0976562 C 1.203125 -0.0078125 1.050781 0.0351562 0.867188 0.0351562 C 0.636719 0.0351562 0.453125 -0.0351562 0.316406 -0.179688 C 0.179688 -0.320312 0.113281 -0.519531 0.113281 -0.777344 C 0.113281 -1.046875 0.179688 -1.253906 0.316406 -1.398438 C 0.457031 -1.546875 0.632812 -1.621094 0.851562 -1.621094 C 1.0625 -1.621094 1.238281 -1.546875 1.371094 -1.402344 C 1.503906 -1.261719 1.574219 -1.058594 1.574219 -0.796875 C 1.574219 -0.78125 1.570312 -0.753906 1.570312 -0.722656 L 0.390625 -0.722656 C 0.398438 -0.550781 0.449219 -0.417969 0.539062 -0.324219 C 0.625 -0.230469 0.734375 -0.183594 0.867188 -0.183594 C 0.96875 -0.183594 1.050781 -0.210938 1.121094 -0.261719 C 1.191406 -0.3125 1.246094 -0.398438 1.285156 -0.511719 M 0.40625 -0.945312 L 1.289062 -0.945312 C 1.277344 -1.078125 1.242188 -1.179688 1.1875 -1.246094 C 1.101562 -1.347656 0.992188 -1.398438 0.855469 -1.398438 C 0.730469 -1.398438 0.628906 -1.359375 0.542969 -1.277344 C 0.460938 -1.191406 0.414062 -1.082031 0.40625 -0.945312 Z "/>
</g>
<g id="glyph-0-7">
<path d="M 0.265625 0 L 0.265625 -1.375 L 0.0273438 -1.375 L 0.0273438 -1.585938 L 0.265625 -1.585938 L 0.265625 -1.753906 C 0.265625 -1.859375 0.273438 -1.9375 0.292969 -1.992188 C 0.320312 -2.058594 0.367188 -2.117188 0.429688 -2.160156 C 0.496094 -2.203125 0.585938 -2.226562 0.703125 -2.226562 C 0.78125 -2.226562 0.863281 -2.214844 0.953125 -2.199219 L 0.914062 -1.964844 C 0.859375 -1.972656 0.804688 -1.980469 0.757812 -1.980469 C 0.675781 -1.980469 0.617188 -1.960938 0.582031 -1.925781 C 0.550781 -1.890625 0.53125 -1.828125 0.53125 -1.730469 L 0.53125 -1.585938 L 0.839844 -1.585938 L 0.839844 -1.375 L 0.53125 -1.375 L 0.53125 0 Z "/>
</g>
<g id="glyph-0-8">
<path d="M 1.234375 -0.195312 C 1.136719 -0.109375 1.039062 -0.0507812 0.949219 -0.015625 C 0.855469 0.0195312 0.757812 0.0351562 0.652344 0.0351562 C 0.476562 0.0351562 0.34375 -0.0078125 0.25 -0.0898438 C 0.15625 -0.175781 0.109375 -0.285156 0.109375 -0.417969 C 0.109375 -0.496094 0.128906 -0.566406 0.164062 -0.628906 C 0.199219 -0.695312 0.246094 -0.746094 0.300781 -0.785156 C 0.359375 -0.824219 0.421875 -0.851562 0.496094 -0.871094 C 0.546875 -0.886719 0.628906 -0.898438 0.734375 -0.914062 C 0.949219 -0.9375 1.109375 -0.96875 1.214844 -1.003906 C 1.214844 -1.042969 1.214844 -1.066406 1.214844 -1.074219 C 1.214844 -1.183594 1.1875 -1.261719 1.136719 -1.308594 C 1.070312 -1.367188 0.96875 -1.398438 0.832031 -1.398438 C 0.707031 -1.398438 0.613281 -1.375 0.554688 -1.332031 C 0.492188 -1.289062 0.449219 -1.210938 0.417969 -1.097656 L 0.15625 -1.132812 C 0.179688 -1.246094 0.21875 -1.335938 0.273438 -1.40625 C 0.328125 -1.472656 0.410156 -1.527344 0.511719 -1.566406 C 0.617188 -1.601562 0.734375 -1.621094 0.871094 -1.621094 C 1.007812 -1.621094 1.117188 -1.605469 1.203125 -1.574219 C 1.285156 -1.539062 1.347656 -1.5 1.386719 -1.453125 C 1.425781 -1.40625 1.457031 -1.34375 1.472656 -1.269531 C 1.480469 -1.222656 1.484375 -1.140625 1.484375 -1.023438 L 1.484375 -0.664062 C 1.484375 -0.414062 1.492188 -0.257812 1.5 -0.191406 C 1.511719 -0.125 1.535156 -0.0625 1.570312 0 L 1.289062 0 C 1.261719 -0.0546875 1.242188 -0.121094 1.234375 -0.195312 M 1.214844 -0.796875 C 1.117188 -0.753906 0.96875 -0.722656 0.773438 -0.695312 C 0.664062 -0.679688 0.585938 -0.660156 0.539062 -0.640625 C 0.496094 -0.621094 0.460938 -0.589844 0.433594 -0.554688 C 0.410156 -0.515625 0.398438 -0.472656 0.398438 -0.425781 C 0.398438 -0.355469 0.425781 -0.292969 0.476562 -0.246094 C 0.53125 -0.199219 0.613281 -0.175781 0.714844 -0.175781 C 0.820312 -0.175781 0.910156 -0.195312 0.992188 -0.242188 C 1.074219 -0.289062 1.132812 -0.351562 1.167969 -0.429688 C 1.199219 -0.488281 1.214844 -0.578125 1.214844 -0.695312 Z "/>
</g>
<g id="glyph-0-9">
<path d="M 0.789062 -0.242188 L 0.828125 -0.00390625 C 0.75 0.0117188 0.683594 0.0195312 0.625 0.0195312 C 0.527344 0.0195312 0.449219 0.00390625 0.398438 -0.0234375 C 0.34375 -0.0546875 0.304688 -0.0976562 0.285156 -0.148438 C 0.261719 -0.195312 0.25 -0.304688 0.25 -0.464844 L 0.25 -1.375 L 0.0546875 -1.375 L 0.0546875 -1.585938 L 0.25 -1.585938 L 0.25 -1.976562 L 0.519531 -2.136719 L 0.519531 -1.585938 L 0.789062 -1.585938 L 0.789062 -1.375 L 0.519531 -1.375 L 0.519531 -0.449219 C 0.519531 -0.371094 0.523438 -0.324219 0.53125 -0.300781 C 0.542969 -0.28125 0.558594 -0.261719 0.578125 -0.25 C 0.597656 -0.234375 0.628906 -0.230469 0.671875 -0.230469 C 0.699219 -0.230469 0.738281 -0.234375 0.789062 -0.242188 Z "/>
</g>
<g id="glyph-0-10">
<path d="M 1.238281 0 L 1.238281 -0.234375 C 1.117188 -0.0546875 0.949219 0.0351562 0.738281 0.0351562 C 0.644531 0.0351562 0.554688 0.0195312 0.476562 -0.0195312 C 0.394531 -0.0546875 0.335938 -0.0976562 0.292969 -0.152344 C 0.253906 -0.207031 0.226562 -0.273438 0.210938 -0.351562 C 0.199219 -0.40625 0.195312 -0.488281 0.195312 -0.601562 L 0.195312 -1.585938 L 0.464844 -1.585938 L 0.464844 -0.707031 C 0.464844 -0.566406 0.46875 -0.472656 0.480469 -0.421875 C 0.496094 -0.351562 0.535156 -0.296875 0.589844 -0.257812 C 0.644531 -0.214844 0.710938 -0.195312 0.789062 -0.195312 C 0.871094 -0.195312 0.945312 -0.214844 1.019531 -0.257812 C 1.089844 -0.296875 1.136719 -0.355469 1.167969 -0.425781 C 1.195312 -0.496094 1.210938 -0.601562 1.210938 -0.734375 L 1.210938 -1.585938 L 1.480469 -1.585938 L 1.480469 0 Z "/>
</g>
<g id="glyph-0-11">
<path d="M 1.234375 -0.582031 L 1.5 -0.546875 C 1.472656 -0.363281 1.398438 -0.222656 1.277344 -0.117188 C 1.160156 -0.015625 1.011719 0.0351562 0.839844 0.0351562 C 0.625 0.0351562 0.449219 -0.0351562 0.316406 -0.175781 C 0.183594 -0.320312 0.121094 -0.523438 0.121094 -0.785156 C 0.121094 -0.957031 0.148438 -1.105469 0.203125 -1.234375 C 0.261719 -1.363281 0.347656 -1.460938 0.464844 -1.523438 C 0.578125 -1.589844 0.707031 -1.621094 0.839844 -1.621094 C 1.015625 -1.621094 1.15625 -1.578125 1.265625 -1.488281 C 1.375 -1.402344 1.445312 -1.28125 1.472656 -1.117188 L 1.214844 -1.078125 C 1.1875 -1.183594 1.144531 -1.265625 1.082031 -1.320312 C 1.019531 -1.371094 0.941406 -1.398438 0.851562 -1.398438 C 0.714844 -1.398438 0.605469 -1.351562 0.523438 -1.253906 C 0.4375 -1.15625 0.394531 -1.003906 0.394531 -0.792969 C 0.394531 -0.582031 0.4375 -0.425781 0.519531 -0.328125 C 0.597656 -0.234375 0.707031 -0.183594 0.835938 -0.183594 C 0.941406 -0.183594 1.03125 -0.21875 1.101562 -0.28125 C 1.171875 -0.347656 1.214844 -0.445312 1.234375 -0.582031 Z "/>
</g>
<g id="glyph-0-12">
<path d="M 0.101562 -0.792969 C 0.101562 -1.085938 0.183594 -1.304688 0.347656 -1.445312 C 0.484375 -1.5625 0.648438 -1.621094 0.84375 -1.621094 C 1.0625 -1.621094 1.242188 -1.550781 1.378906 -1.40625 C 1.515625 -1.261719 1.585938 -1.066406 1.585938 -0.816406 C 1.585938 -0.609375 1.554688 -0.449219 1.496094 -0.332031 C 1.433594 -0.214844 1.34375 -0.125 1.226562 -0.0625 C 1.109375 0.00390625 0.984375 0.0351562 0.84375 0.0351562 C 0.621094 0.0351562 0.445312 -0.0351562 0.308594 -0.175781 C 0.167969 -0.320312 0.101562 -0.523438 0.101562 -0.792969 M 0.378906 -0.792969 C 0.378906 -0.589844 0.421875 -0.4375 0.511719 -0.335938 C 0.597656 -0.234375 0.710938 -0.183594 0.84375 -0.183594 C 0.976562 -0.183594 1.089844 -0.234375 1.175781 -0.335938 C 1.265625 -0.4375 1.308594 -0.59375 1.308594 -0.800781 C 1.308594 -0.996094 1.265625 -1.144531 1.175781 -1.246094 C 1.085938 -1.347656 0.976562 -1.398438 0.84375 -1.398438 C 0.710938 -1.398438 0.597656 -1.347656 0.511719 -1.246094 C 0.421875 -1.148438 0.378906 -0.996094 0.378906 -0.792969 Z "/>
</g>
<g id="glyph-0-13">
<path d="M 0.199219 0 L 0.199219 -1.585938 L 0.441406 -1.585938 L 0.441406 -1.34375 C 0.5 -1.457031 0.558594 -1.53125 0.609375 -1.566406 C 0.664062 -1.601562 0.722656 -1.621094 0.785156 -1.621094 C 0.875 -1.621094 0.964844 -1.589844 1.058594 -1.535156 L 0.96875 -1.285156 C 0.902344 -1.324219 0.835938 -1.34375 0.769531 -1.34375 C 0.710938 -1.34375 0.660156 -1.324219 0.613281 -1.289062 C 0.566406 -1.253906 0.53125 -1.207031 0.511719 -1.144531 C 0.480469 -1.046875 0.46875 -0.941406 0.46875 -0.828125 L 0.46875 0 Z "/>
</g>
<g id="glyph-0-14">
<path d="M 0.277344 0 L 0.277344 -0.304688 L 0.582031 -0.304688 L 0.582031 0 Z "/>
</g>
</g>
</defs>
<g fill="rgb(81.960784%, 83.529412%, 85.882353%)" fill-opacity="1">
<use xlink:href="#glyph-0-0" x="30" y="22.766602"/>
<use xlink:href="#glyph-0-1" x="32" y="22.766602"/>
<use xlink:href="#glyph-0-2" x="33" y="22.766602"/>
<use xlink:href="#glyph-0-3" x="34" y="22.766602"/>
<use xlink:href="#glyph-0-4" x="35" y="22.766602"/>
<use xlink:href="#glyph-0-5" x="36" y="22.766602"/>
<use xlink:href="#glyph-0-6" x="38" y="22.766602"/>
<use xlink:href="#glyph-0-4" x="40" y="22.766602"/>
<use xlink:href="#glyph-0-7" x="41" y="22.766602"/>
<use xlink:href="#glyph-0-8" x="42" y="22.766602"/>
<use xlink:href="#glyph-0-2" x="44" y="22.766602"/>
<use xlink:href="#glyph-0-9" x="45" y="22.766602"/>
<use xlink:href="#glyph-0-4" x="46" y="22.766602"/>
<use xlink:href="#glyph-0-8" x="47" y="22.766602"/>
<use xlink:href="#glyph-0-10" x="49" y="22.766602"/>
<use xlink:href="#glyph-0-11" x="51" y="22.766602"/>
<use xlink:href="#glyph-0-10" x="53" y="22.766602"/>
<use xlink:href="#glyph-0-5" x="55" y="22.766602"/>
<use xlink:href="#glyph-0-4" x="57" y="22.766602"/>
<use xlink:href="#glyph-0-6" x="58" y="22.766602"/>
<use xlink:href="#glyph-0-7" x="60" y="22.766602"/>
<use xlink:href="#glyph-0-7" x="61" y="22.766602"/>
<use xlink:href="#glyph-0-12" x="62" y="22.766602"/>
<use xlink:href="#glyph-0-13" x="64" y="22.766602"/>
<use xlink:href="#glyph-0-9" x="65" y="22.766602"/>
<use xlink:href="#glyph-0-14" x="66" y="22.766602"/>
<use xlink:href="#glyph-0-14" x="67" y="22.766602"/>
<use xlink:href="#glyph-0-14" x="68" y="22.766602"/>
</g>
</svg>
