<?xml version="1.0" encoding="UTF-8"?>
<svg xmlns="http://www.w3.org/2000/svg" xmlns:xlink="http://www.w3.org/1999/xlink" width="1080" height="1920" viewBox="0 0 1080 1920">
<defs>
<g>
<g id="glyph-0-0">
<path d="M -0.0585938 0 L 2.804688 -8.480469 L 4.191406 -8.480469 L 7.050781 0 L 5.863281 0 L 5.09375 -2.371094 L 1.851562 -2.371094 L 1.082031 0 L -0.0585938 0 M 4.78125 -3.332031 L 3.46875 -7.332031 L 2.164062 -3.332031 Z "/>
</g>
<g id="glyph-0-1">
<path d="M 5.777344 0 L 4.707031 0 L 4.707031 -3.625 C 4.707031 -3.914062 4.691406 -4.1875 4.664062 -4.441406 C 4.632812 -4.691406 4.578125 -4.894531 4.5 -5.046875 C 4.414062 -5.207031 4.292969 -5.324219 4.136719 -5.402344 C 3.980469 -5.480469 3.765625 -5.519531 3.496094 -5.519531 C 3.230469 -5.519531 2.957031 -5.449219 2.675781 -5.304688 C 2.390625 -5.164062 2.117188 -4.980469 1.84375 -4.75 L 1.84375 0 L 0.773438 0 L 0.773438 -6.363281 L 1.84375 -6.363281 L 1.84375 -5.65625 C 2.164062 -5.941406 2.480469 -6.160156 2.792969 -6.3125 C 3.101562 -6.464844 3.429688 -6.539062 3.777344 -6.539062 C 4.402344 -6.539062 4.894531 -6.332031 5.246094 -5.921875 C 5.601562 -5.507812 5.777344 -4.914062 5.777344 -4.128906 Z "/>
</g>
<g id="glyph-0-2">
<path d="M 4.328125 -1.566406 L 4.328125 -3.332031 C 4.074219 -3.308594 3.753906 -3.277344 3.363281 -3.238281 C 2.972656 -3.199219 2.660156 -3.144531 2.421875 -3.070312 C 2.136719 -2.984375 1.902344 -2.847656 1.714844 -2.667969 C 1.527344 -2.488281 1.433594 -2.238281 1.4375 -1.914062 C 1.433594 -1.550781 1.539062 -1.273438 1.742188 -1.089844 C 1.949219 -0.902344 2.25 -0.808594 2.644531 -0.808594 C 2.980469 -0.808594 3.285156 -0.882812 3.558594 -1.027344 C 3.832031 -1.175781 4.089844 -1.355469 4.328125 -1.566406 M 4.328125 -0.679688 C 4.242188 -0.613281 4.125 -0.523438 3.980469 -0.40625 C 3.832031 -0.292969 3.691406 -0.199219 3.554688 -0.132812 C 3.363281 -0.03125 3.179688 0.0429688 3.003906 0.0976562 C 2.828125 0.148438 2.582031 0.175781 2.261719 0.175781 C 2 0.175781 1.75 0.128906 1.515625 0.0273438 C 1.28125 -0.0703125 1.074219 -0.207031 0.894531 -0.386719 C 0.722656 -0.5625 0.585938 -0.777344 0.484375 -1.035156 C 0.382812 -1.289062 0.332031 -1.5625 0.332031 -1.84375 C 0.332031 -2.285156 0.421875 -2.660156 0.609375 -2.972656 C 0.796875 -3.28125 1.089844 -3.527344 1.492188 -3.707031 C 1.847656 -3.871094 2.269531 -3.984375 2.757812 -4.046875 C 3.242188 -4.109375 3.765625 -4.15625 4.328125 -4.1875 L 4.328125 -4.390625 C 4.328125 -4.644531 4.292969 -4.84375 4.214844 -5 C 4.140625 -5.152344 4.03125 -5.269531 3.898438 -5.355469 C 3.757812 -5.441406 3.59375 -5.5 3.394531 -5.527344 C 3.199219 -5.558594 2.996094 -5.570312 2.785156 -5.570312 C 2.539062 -5.570312 2.25 -5.535156 1.914062 -5.460938 C 1.578125 -5.386719 1.246094 -5.277344 0.910156 -5.136719 L 0.847656 -5.136719 L 0.847656 -6.226562 C 1.046875 -6.285156 1.328125 -6.347656 1.699219 -6.414062 C 2.066406 -6.484375 2.429688 -6.515625 2.792969 -6.515625 C 3.226562 -6.515625 3.597656 -6.484375 3.898438 -6.414062 C 4.195312 -6.347656 4.464844 -6.222656 4.707031 -6.042969 C 4.9375 -5.871094 5.109375 -5.644531 5.222656 -5.367188 C 5.335938 -5.089844 5.394531 -4.75 5.394531 -4.351562 L 5.394531 0 L 4.328125 0 Z "/>
</g>
<g id="glyph-0-3">
<path d="M 1.867188 0 L 0.796875 0 L 0.796875 -8.863281 L 1.867188 -8.863281 Z "/>
</g>
<g id="glyph-0-4">
<path d="M 5.777344 -6.363281 L 2.351562 2.347656 L 1.207031 2.347656 L 2.347656 -0.308594 L 0.0351562 -6.363281 L 1.191406 -6.363281 L 2.929688 -1.652344 L 4.660156 -6.363281 Z "/>
</g>
<g id="glyph-0-5">
<path d="M 2.496094 0.152344 C 2.070312 0.152344 1.671875 0.0976562 1.300781 -0.015625 C 0.929688 -0.132812 0.625 -0.253906 0.382812 -0.382812 L 0.382812 -1.582031 L 0.4375 -1.582031 C 0.53125 -1.511719 0.636719 -1.433594 0.761719 -1.34375 C 0.882812 -1.257812 1.046875 -1.164062 1.253906 -1.070312 C 1.4375 -0.988281 1.636719 -0.914062 1.855469 -0.847656 C 2.074219 -0.785156 2.300781 -0.75 2.535156 -0.75 C 2.707031 -0.75 2.886719 -0.773438 3.082031 -0.8125 C 3.277344 -0.851562 3.417969 -0.902344 3.515625 -0.960938 C 3.648438 -1.050781 3.742188 -1.144531 3.800781 -1.242188 C 3.863281 -1.339844 3.890625 -1.488281 3.890625 -1.6875 C 3.890625 -1.941406 3.820312 -2.132812 3.683594 -2.261719 C 3.542969 -2.390625 3.296875 -2.5 2.945312 -2.585938 C 2.808594 -2.621094 2.628906 -2.660156 2.410156 -2.707031 C 2.1875 -2.75 1.984375 -2.800781 1.800781 -2.855469 C 1.3125 -2.996094 0.960938 -3.210938 0.742188 -3.507812 C 0.519531 -3.800781 0.410156 -4.15625 0.410156 -4.574219 C 0.410156 -5.148438 0.625 -5.613281 1.058594 -5.976562 C 1.492188 -6.335938 2.066406 -6.515625 2.785156 -6.515625 C 3.140625 -6.515625 3.492188 -6.472656 3.851562 -6.386719 C 4.207031 -6.296875 4.507812 -6.1875 4.75 -6.054688 L 4.75 -4.910156 L 4.695312 -4.910156 C 4.421875 -5.125 4.117188 -5.296875 3.78125 -5.421875 C 3.445312 -5.546875 3.105469 -5.609375 2.761719 -5.609375 C 2.410156 -5.609375 2.113281 -5.539062 1.867188 -5.390625 C 1.625 -5.242188 1.503906 -5.015625 1.503906 -4.71875 C 1.503906 -4.449219 1.574219 -4.253906 1.71875 -4.121094 C 1.863281 -3.992188 2.097656 -3.882812 2.414062 -3.800781 C 2.574219 -3.757812 2.753906 -3.71875 2.949219 -3.675781 C 3.144531 -3.636719 3.351562 -3.589844 3.566406 -3.539062 C 4.035156 -3.417969 4.390625 -3.222656 4.628906 -2.949219 C 4.867188 -2.675781 4.984375 -2.304688 4.984375 -1.835938 C 4.984375 -1.5625 4.929688 -1.300781 4.820312 -1.058594 C 4.714844 -0.8125 4.554688 -0.601562 4.347656 -0.425781 C 4.117188 -0.238281 3.863281 -0.09375 3.574219 0.00390625 C 3.289062 0.105469 2.929688 0.152344 2.496094 0.152344 Z "/>
</g>
<g id="glyph-0-6">
<path d="M 3.539062 0.148438 C 2.523438 0.148438 1.738281 -0.136719 1.175781 -0.710938 C 0.617188 -1.28125 0.335938 -2.09375 0.335938 -3.144531 C 0.335938 -4.179688 0.609375 -5.007812 1.152344 -5.621094 C 1.695312 -6.234375 2.402344 -6.539062 3.28125 -6.539062 C 3.675781 -6.539062 4.027344 -6.484375 4.328125 -6.367188 C 4.632812 -6.253906 4.898438 -6.078125 5.125 -5.832031 C 5.355469 -5.589844 5.53125 -5.292969 5.652344 -4.941406 C 5.773438 -4.589844 5.832031 -4.160156 5.832031 -3.652344 L 5.832031 -3.070312 L 1.425781 -3.070312 C 1.425781 -2.328125 1.609375 -1.765625 1.984375 -1.371094 C 2.355469 -0.980469 2.871094 -0.785156 3.527344 -0.785156 C 3.761719 -0.785156 3.992188 -0.8125 4.21875 -0.867188 C 4.445312 -0.917969 4.648438 -0.988281 4.832031 -1.070312 C 5.023438 -1.160156 5.1875 -1.242188 5.320312 -1.324219 C 5.453125 -1.40625 5.5625 -1.484375 5.652344 -1.554688 L 5.714844 -1.554688 L 5.714844 -0.386719 C 5.589844 -0.339844 5.433594 -0.277344 5.246094 -0.203125 C 5.058594 -0.128906 4.894531 -0.0703125 4.746094 -0.0273438 C 4.535156 0.0273438 4.347656 0.0703125 4.179688 0.101562 C 4.007812 0.132812 3.796875 0.148438 3.539062 0.148438 M 4.789062 -3.890625 C 4.785156 -4.179688 4.75 -4.429688 4.6875 -4.636719 C 4.628906 -4.847656 4.539062 -5.023438 4.425781 -5.167969 C 4.300781 -5.328125 4.140625 -5.449219 3.945312 -5.53125 C 3.75 -5.613281 3.507812 -5.65625 3.21875 -5.65625 C 2.933594 -5.65625 2.691406 -5.613281 2.492188 -5.527344 C 2.292969 -5.441406 2.113281 -5.320312 1.949219 -5.15625 C 1.789062 -4.988281 1.667969 -4.804688 1.582031 -4.601562 C 1.5 -4.398438 1.445312 -4.160156 1.425781 -3.890625 Z "/>
</g>
<g id="glyph-0-7">
</g>
<g id="glyph-0-8">
<path d="M 3.304688 0.140625 C 2.867188 0.140625 2.464844 0.0742188 2.101562 -0.0585938 C 1.738281 -0.195312 1.425781 -0.398438 1.164062 -0.671875 C 0.898438 -0.945312 0.695312 -1.289062 0.550781 -1.707031 C 0.410156 -2.121094 0.335938 -2.609375 0.335938 -3.171875 C 0.335938 -3.730469 0.410156 -4.214844 0.5625 -4.621094 C 0.710938 -5.027344 0.910156 -5.367188 1.164062 -5.644531 C 1.414062 -5.921875 1.726562 -6.136719 2.097656 -6.285156 C 2.472656 -6.4375 2.875 -6.511719 3.304688 -6.511719 C 3.652344 -6.511719 3.992188 -6.460938 4.316406 -6.363281 C 4.640625 -6.265625 4.929688 -6.152344 5.183594 -6.019531 L 5.183594 -4.820312 L 5.121094 -4.820312 C 5.046875 -4.882812 4.949219 -4.957031 4.828125 -5.042969 C 4.707031 -5.125 4.5625 -5.210938 4.390625 -5.296875 C 4.242188 -5.375 4.070312 -5.441406 3.867188 -5.496094 C 3.667969 -5.554688 3.472656 -5.582031 3.285156 -5.582031 C 2.734375 -5.582031 2.289062 -5.371094 1.949219 -4.953125 C 1.613281 -4.535156 1.445312 -3.941406 1.445312 -3.171875 C 1.445312 -2.421875 1.609375 -1.835938 1.933594 -1.414062 C 2.257812 -0.996094 2.710938 -0.785156 3.285156 -0.785156 C 3.636719 -0.785156 3.96875 -0.859375 4.285156 -1.003906 C 4.597656 -1.148438 4.878906 -1.332031 5.121094 -1.5625 L 5.183594 -1.5625 L 5.183594 -0.359375 C 5.078125 -0.308594 4.945312 -0.25 4.785156 -0.179688 C 4.625 -0.109375 4.480469 -0.0585938 4.351562 -0.0234375 C 4.171875 0.03125 4.007812 0.0703125 3.863281 0.101562 C 3.71875 0.128906 3.53125 0.140625 3.304688 0.140625 Z "/>
</g>
<g id="glyph-0-9">
<path d="M 6.011719 -3.179688 C 6.011719 -2.109375 5.75 -1.28125 5.234375 -0.699219 C 4.71875 -0.113281 4.03125 0.175781 3.171875 0.175781 C 2.289062 0.175781 1.59375 -0.125 1.085938 -0.726562 C 0.578125 -1.328125 0.324219 -2.144531 0.324219 -3.179688 C 0.324219 -4.242188 0.585938 -5.066406 1.109375 -5.65625 C 1.628906 -6.246094 2.320312 -6.539062 3.171875 -6.539062 C 4.03125 -6.539062 4.71875 -6.246094 5.234375 -5.660156 C 5.75 -5.074219 6.011719 -4.246094 6.011719 -3.179688 M 4.90625 -3.179688 C 4.90625 -4.003906 4.753906 -4.613281 4.453125 -5.015625 C 4.15625 -5.417969 3.726562 -5.617188 3.171875 -5.617188 C 2.613281 -5.617188 2.183594 -5.417969 1.882812 -5.015625 C 1.582031 -4.613281 1.429688 -4.003906 1.429688 -3.179688 C 1.429688 -2.382812 1.582031 -1.777344 1.882812 -1.363281 C 2.183594 -0.953125 2.613281 -0.746094 3.171875 -0.746094 C 3.722656 -0.746094 4.148438 -0.949219 4.453125 -1.351562 C 4.753906 -1.757812 4.90625 -2.367188 4.90625 -3.179688 Z "/>
</g>
<g id="glyph-0-10">
<path d="M 5.730469 0 L 4.660156 0 L 4.660156 -0.707031 C 4.328125 -0.417969 4.015625 -0.199219 3.71875 -0.046875 C 3.421875 0.101562 3.09375 0.175781 2.730469 0.175781 C 2.453125 0.175781 2.191406 0.132812 1.945312 0.0390625 C 1.699219 -0.0507812 1.488281 -0.195312 1.304688 -0.394531 C 1.121094 -0.589844 0.980469 -0.839844 0.878906 -1.140625 C 0.78125 -1.4375 0.730469 -1.804688 0.730469 -2.234375 L 0.730469 -6.363281 L 1.800781 -6.363281 L 1.800781 -2.738281 C 1.800781 -2.402344 1.8125 -2.121094 1.835938 -1.898438 C 1.863281 -1.675781 1.917969 -1.484375 2.003906 -1.316406 C 2.09375 -1.152344 2.210938 -1.03125 2.359375 -0.957031 C 2.511719 -0.882812 2.726562 -0.84375 3.007812 -0.84375 C 3.269531 -0.84375 3.550781 -0.917969 3.84375 -1.066406 C 4.140625 -1.214844 4.414062 -1.394531 4.660156 -1.613281 L 4.660156 -6.363281 L 5.730469 -6.363281 Z "/>
</g>
<g id="glyph-0-11">
<path d="M 4.148438 -5.210938 L 4.089844 -5.210938 C 4.011719 -5.234375 3.925781 -5.25 3.835938 -5.253906 C 3.746094 -5.261719 3.640625 -5.261719 3.515625 -5.265625 C 3.226562 -5.261719 2.9375 -5.199219 2.65625 -5.074219 C 2.371094 -4.949219 2.101562 -4.765625 1.84375 -4.515625 L 1.84375 0 L 0.773438 0 L 0.773438 -6.363281 L 1.84375 -6.363281 L 1.84375 -5.417969 C 2.238281 -5.761719 2.578125 -6.007812 2.867188 -6.148438 C 3.160156 -6.292969 3.441406 -6.363281 3.714844 -6.363281 C 3.824219 -6.363281 3.90625 -6.359375 3.960938 -6.355469 C 4.015625 -6.347656 4.078125 -6.339844 4.148438 -6.328125 Z "/>
</g>
<g id="glyph-0-12">
<path d="M 2.445312 0 L 1.082031 0 L 1.082031 -1.625 L 2.445312 -1.625 Z "/>
</g>
</g>
</defs>
<g fill="rgb(65.882353%, 33.333333%, 96.862745%)" fill-opacity="1">
<use xlink:href="#glyph-0-0" x="30" y="31.671875"/>
<use xlink:href="#glyph-0-1" x="37" y="31.671875"/>
<use xlink:href="#glyph-0-2" x="44" y="31.671875"/>
<use xlink:href="#glyph-0-3" x="50" y="31.671875"/>
<use xlink:href="#glyph-0-4" x="53" y="31.671875"/>
<use xlink:href="#glyph-0-5" x="59" y="31.671875"/>
<use xlink:href="#glyph-0-6" x="64" y="31.671875"/>
<use xlink:href="#glyph-0-7" x="70" y="31.671875"/>
<use xlink:href="#glyph-0-6" x="74" y="31.671875"/>
<use xlink:href="#glyph-0-1" x="80" y="31.671875"/>
<use xlink:href="#glyph-0-7" x="87" y="31.671875"/>
<use xlink:href="#glyph-0-8" x="91" y="31.671875"/>
<use xlink:href="#glyph-0-9" x="96" y="31.671875"/>
<use xlink:href="#glyph-0-10" x="102" y="31.671875"/>
<use xlink:href="#glyph-0-11" x="109" y="31.671875"/>
<use xlink:href="#glyph-0-5" x="113" y="31.671875"/>
<use xlink:href="#glyph-0-12" x="118" y="31.671875"/>
<use xlink:href="#glyph-0-12" x="122" y="31.671875"/>
<use xlink:href="#glyph-0-12" x="126" y="31.671875"/>
</g>
</svg>
