<?xml version="1.0" encoding="UTF-8"?>
<svg xmlns="http://www.w3.org/2000/svg" xmlns:xlink="http://www.w3.org/1999/xlink" width="1080" height="1920" viewBox="0 0 1080 1920">
<defs>
<g>
<g id="glyph-0-0">
<path d="M 8.011719 -5.460938 L 8.011719 -7.09375 L 13.910156 -7.101562 L 13.910156 -1.9375 C 13.003906 -1.214844 12.070312 -0.671875 11.109375 -0.308594 C 10.144531 0.0546875 9.160156 0.238281 8.144531 0.238281 C 6.777344 0.238281 5.535156 -0.0546875 4.417969 -0.640625 C 3.300781 -1.226562 2.457031 -2.074219 1.890625 -3.179688 C 1.320312 -4.289062 1.035156 -5.527344 1.035156 -6.894531 C 1.035156 -8.246094 1.316406 -9.511719 1.882812 -10.6875 C 2.449219 -11.859375 3.265625 -12.730469 4.328125 -13.300781 C 5.394531 -13.871094 6.617188 -14.15625 8.003906 -14.15625 C 9.011719 -14.15625 9.917969 -13.992188 10.734375 -13.667969 C 11.546875 -13.339844 12.183594 -12.886719 12.644531 -12.304688 C 13.109375 -11.722656 13.460938 -10.960938 13.699219 -10.027344 L 12.039062 -9.570312 C 11.828125 -10.277344 11.570312 -10.835938 11.261719 -11.242188 C 10.949219 -11.644531 10.507812 -11.96875 9.929688 -12.214844 C 9.355469 -12.457031 8.714844 -12.578125 8.011719 -12.578125 C 7.171875 -12.578125 6.445312 -12.453125 5.828125 -12.195312 C 5.214844 -11.9375 4.71875 -11.601562 4.34375 -11.183594 C 3.96875 -10.765625 3.675781 -10.308594 3.464844 -9.808594 C 3.109375 -8.945312 2.933594 -8.011719 2.933594 -7.007812 C 2.933594 -5.765625 3.148438 -4.726562 3.574219 -3.894531 C 4 -3.058594 4.625 -2.4375 5.441406 -2.03125 C 6.257812 -1.625 7.125 -1.425781 8.042969 -1.425781 C 8.839844 -1.425781 9.617188 -1.578125 10.378906 -1.882812 C 11.136719 -2.191406 11.710938 -2.519531 12.105469 -2.867188 L 12.105469 -5.460938 Z "/>
</g>
<g id="glyph-0-1">
<path d="M 1.28125 0 L 1.28125 -13.917969 L 2.992188 -13.917969 L 2.992188 -8.925781 C 3.789062 -9.847656 4.792969 -10.3125 6.011719 -10.3125 C 6.757812 -10.3125 7.40625 -10.164062 7.957031 -9.871094 C 8.507812 -9.574219 8.902344 -9.167969 9.136719 -8.648438 C 9.375 -8.128906 9.496094 -7.375 9.496094 -6.390625 L 9.496094 0 L 7.785156 0 L 7.785156 -6.390625 C 7.785156 -7.242188 7.601562 -7.867188 7.230469 -8.253906 C 6.859375 -8.644531 6.335938 -8.839844 5.660156 -8.839844 C 5.152344 -8.839844 4.675781 -8.707031 4.230469 -8.445312 C 3.785156 -8.183594 3.464844 -7.828125 3.277344 -7.375 C 3.085938 -6.925781 2.992188 -6.308594 2.992188 -5.515625 L 2.992188 0 Z "/>
</g>
<g id="glyph-0-2">
<path d="M 0.644531 -5.042969 C 0.644531 -6.910156 1.164062 -8.292969 2.203125 -9.191406 C 3.070312 -9.9375 4.125 -10.3125 5.375 -10.3125 C 6.761719 -10.3125 7.894531 -9.855469 8.773438 -8.949219 C 9.652344 -8.039062 10.09375 -6.785156 10.09375 -5.183594 C 10.09375 -3.886719 9.898438 -2.867188 9.507812 -2.121094 C 9.117188 -1.378906 8.550781 -0.800781 7.808594 -0.390625 C 7.066406 0.0234375 6.253906 0.226562 5.375 0.226562 C 3.960938 0.226562 2.820312 -0.226562 1.949219 -1.128906 C 1.082031 -2.035156 0.644531 -3.339844 0.644531 -5.042969 M 2.402344 -5.042969 C 2.402344 -3.75 2.683594 -2.785156 3.246094 -2.140625 C 3.808594 -1.5 4.519531 -1.175781 5.375 -1.175781 C 6.222656 -1.175781 6.925781 -1.5 7.492188 -2.144531 C 8.054688 -2.792969 8.335938 -3.777344 8.335938 -5.097656 C 8.335938 -6.34375 8.050781 -7.289062 7.484375 -7.933594 C 6.917969 -8.574219 6.214844 -8.894531 5.375 -8.894531 C 4.519531 -8.894531 3.808594 -8.578125 3.246094 -7.9375 C 2.683594 -7.296875 2.402344 -6.332031 2.402344 -5.042969 Z "/>
</g>
<g id="glyph-0-3">
<path d="M 0.597656 -3.007812 L 2.289062 -3.277344 C 2.382812 -2.597656 2.648438 -2.078125 3.082031 -1.71875 C 3.515625 -1.359375 4.121094 -1.175781 4.898438 -1.175781 C 5.683594 -1.175781 6.265625 -1.335938 6.644531 -1.65625 C 7.027344 -1.976562 7.214844 -2.351562 7.214844 -2.78125 C 7.214844 -3.167969 7.046875 -3.472656 6.710938 -3.691406 C 6.476562 -3.84375 5.894531 -4.039062 4.964844 -4.273438 C 3.710938 -4.589844 2.84375 -4.863281 2.359375 -5.09375 C 1.875 -5.324219 1.507812 -5.644531 1.257812 -6.050781 C 1.007812 -6.460938 0.882812 -6.910156 0.882812 -7.40625 C 0.882812 -7.855469 0.984375 -8.269531 1.191406 -8.652344 C 1.398438 -9.035156 1.675781 -9.355469 2.03125 -9.609375 C 2.296875 -9.804688 2.660156 -9.96875 3.117188 -10.105469 C 3.578125 -10.242188 4.070312 -10.3125 4.59375 -10.3125 C 5.386719 -10.3125 6.082031 -10.195312 6.679688 -9.96875 C 7.277344 -9.742188 7.71875 -9.433594 8.003906 -9.042969 C 8.289062 -8.652344 8.484375 -8.132812 8.59375 -7.480469 L 6.921875 -7.253906 C 6.84375 -7.773438 6.625 -8.175781 6.261719 -8.46875 C 5.898438 -8.761719 5.382812 -8.90625 4.71875 -8.90625 C 3.933594 -8.90625 3.375 -8.777344 3.039062 -8.515625 C 2.703125 -8.257812 2.535156 -7.953125 2.535156 -7.605469 C 2.535156 -7.382812 2.605469 -7.183594 2.742188 -7.007812 C 2.882812 -6.824219 3.101562 -6.671875 3.398438 -6.550781 C 3.570312 -6.488281 4.074219 -6.34375 4.910156 -6.113281 C 6.117188 -5.792969 6.960938 -5.527344 7.4375 -5.320312 C 7.917969 -5.117188 8.292969 -4.816406 8.5625 -4.425781 C 8.835938 -4.03125 8.972656 -3.542969 8.972656 -2.960938 C 8.972656 -2.390625 8.804688 -1.855469 8.472656 -1.351562 C 8.140625 -0.851562 7.660156 -0.460938 7.035156 -0.183594 C 6.410156 0.0898438 5.699219 0.226562 4.910156 0.226562 C 3.597656 0.226562 2.601562 -0.0429688 1.914062 -0.589844 C 1.226562 -1.132812 0.789062 -1.941406 0.597656 -3.007812 Z "/>
</g>
<g id="glyph-0-4">
<path d="M 5.011719 -1.527344 L 5.257812 -0.0195312 C 4.777344 0.0820312 4.347656 0.132812 3.96875 0.132812 C 3.347656 0.132812 2.867188 0.0351562 2.527344 -0.160156 C 2.183594 -0.359375 1.941406 -0.617188 1.804688 -0.933594 C 1.664062 -1.253906 1.59375 -1.925781 1.59375 -2.953125 L 1.59375 -8.753906 L 0.339844 -8.753906 L 0.339844 -10.082031 L 1.59375 -10.082031 L 1.59375 -12.578125 L 3.292969 -13.605469 L 3.292969 -10.082031 L 5.011719 -10.082031 L 5.011719 -8.753906 L 3.292969 -8.753906 L 3.292969 -2.859375 C 3.292969 -2.371094 3.324219 -2.058594 3.382812 -1.917969 C 3.445312 -1.777344 3.542969 -1.667969 3.679688 -1.585938 C 3.816406 -1.503906 4.007812 -1.460938 4.261719 -1.460938 C 4.453125 -1.460938 4.703125 -1.484375 5.011719 -1.527344 Z "/>
</g>
<g id="glyph-0-5">
<path d="M 1.441406 0 L 1.441406 -13.917969 L 4.214844 -13.917969 L 7.511719 -4.0625 C 7.8125 -3.144531 8.035156 -2.457031 8.175781 -2.003906 C 8.332031 -2.507812 8.578125 -3.253906 8.914062 -4.234375 L 12.246094 -13.917969 L 14.726562 -13.917969 L 14.726562 0 L 12.949219 0 L 12.949219 -11.648438 L 8.90625 0 L 7.242188 0 L 3.21875 -11.847656 L 3.21875 0 Z "/>
</g>
<g id="glyph-0-6">
<path d="M 8.183594 -3.246094 L 9.949219 -3.027344 C 9.671875 -1.996094 9.15625 -1.195312 8.402344 -0.625 C 7.648438 -0.0585938 6.6875 0.226562 5.515625 0.226562 C 4.042969 0.226562 2.871094 -0.226562 2.007812 -1.132812 C 1.144531 -2.042969 0.710938 -3.316406 0.710938 -4.957031 C 0.710938 -6.652344 1.148438 -7.96875 2.023438 -8.90625 C 2.894531 -9.84375 4.027344 -10.3125 5.421875 -10.3125 C 6.769531 -10.3125 7.871094 -9.851562 8.726562 -8.933594 C 9.578125 -8.015625 10.007812 -6.726562 10.007812 -5.058594 C 10.007812 -4.960938 10.003906 -4.808594 9.996094 -4.605469 L 2.476562 -4.605469 C 2.542969 -3.496094 2.855469 -2.648438 3.417969 -2.058594 C 3.980469 -1.472656 4.683594 -1.175781 5.527344 -1.175781 C 6.152344 -1.175781 6.6875 -1.34375 7.128906 -1.671875 C 7.574219 -2 7.925781 -2.527344 8.183594 -3.246094 M 2.574219 -6.011719 L 8.203125 -6.011719 C 8.128906 -6.859375 7.910156 -7.492188 7.558594 -7.917969 C 7.011719 -8.578125 6.308594 -8.90625 5.441406 -8.90625 C 4.65625 -8.90625 3.996094 -8.644531 3.460938 -8.117188 C 2.925781 -7.59375 2.628906 -6.890625 2.574219 -6.011719 Z "/>
</g>
<g id="glyph-0-7">
<path d="M 1.261719 0 L 1.261719 -10.082031 L 2.800781 -10.082031 L 2.800781 -8.554688 C 3.191406 -9.269531 3.554688 -9.742188 3.886719 -9.96875 C 4.21875 -10.195312 4.585938 -10.3125 4.984375 -10.3125 C 5.558594 -10.3125 6.144531 -10.128906 6.742188 -9.761719 L 6.152344 -8.175781 C 5.734375 -8.421875 5.316406 -8.542969 4.898438 -8.542969 C 4.527344 -8.542969 4.191406 -8.433594 3.894531 -8.207031 C 3.59375 -7.984375 3.382812 -7.671875 3.257812 -7.273438 C 3.066406 -6.664062 2.972656 -6 2.972656 -5.277344 L 2.972656 0 Z "/>
</g>
</g>
</defs>
<g fill="rgb(100%, 100%, 100%)" fill-opacity="1">
<use xlink:href="#glyph-0-0" x="30" y="37.601562"/>
<use xlink:href="#glyph-0-1" x="45" y="37.601562"/>
<use xlink:href="#glyph-0-2" x="56" y="37.601562"/>
<use xlink:href="#glyph-0-3" x="67" y="37.601562"/>
<use xlink:href="#glyph-0-4" x="77" y="37.601562"/>
<use xlink:href="#glyph-0-5" x="82" y="37.601562"/>
<use xlink:href="#glyph-0-6" x="98" y="37.601562"/>
<use xlink:href="#glyph-0-4" x="109" y="37.601562"/>
<use xlink:href="#glyph-0-6" x="114" y="37.601562"/>
<use xlink:href="#glyph-0-7" x="125" y="37.601562"/>
</g>
</svg>
