<?xml version="1.0" encoding="UTF-8"?>
<svg xmlns="http://www.w3.org/2000/svg" xmlns:xlink="http://www.w3.org/1999/xlink" width="1080" height="1920" viewBox="0 0 1080 1920">
<defs>
<g>
<g id="glyph-0-0">
<path d="M 1.769531 -0.878906 L 2.234375 -0.730469 C 2.164062 -0.46875 2.046875 -0.273438 1.878906 -0.148438 C 1.710938 -0.0234375 1.5 0.0390625 1.246094 0.0390625 C 0.929688 0.0390625 0.667969 -0.0664062 0.464844 -0.285156 C 0.261719 -0.5 0.15625 -0.796875 0.15625 -1.171875 C 0.15625 -1.570312 0.261719 -1.878906 0.464844 -2.097656 C 0.671875 -2.316406 0.941406 -2.425781 1.273438 -2.425781 C 1.566406 -2.425781 1.804688 -2.339844 1.984375 -2.167969 C 2.09375 -2.066406 2.175781 -1.917969 2.230469 -1.726562 L 1.753906 -1.613281 C 1.726562 -1.738281 1.664062 -1.835938 1.578125 -1.90625 C 1.488281 -1.980469 1.378906 -2.015625 1.25 -2.015625 C 1.074219 -2.015625 0.929688 -1.953125 0.820312 -1.824219 C 0.710938 -1.699219 0.652344 -1.492188 0.652344 -1.207031 C 0.652344 -0.90625 0.707031 -0.691406 0.816406 -0.5625 C 0.925781 -0.433594 1.066406 -0.371094 1.242188 -0.371094 C 1.367188 -0.371094 1.476562 -0.410156 1.570312 -0.492188 C 1.664062 -0.574219 1.730469 -0.703125 1.769531 -0.878906 Z "/>
</g>
<g id="glyph-0-1">
<path d="M 0.132812 -0.886719 C 0.132812 -1.039062 0.171875 -1.1875 0.246094 -1.328125 C 0.320312 -1.472656 0.425781 -1.582031 0.5625 -1.65625 C 0.703125 -1.730469 0.855469 -1.765625 1.023438 -1.765625 C 1.285156 -1.765625 1.5 -1.683594 1.667969 -1.511719 C 1.832031 -1.34375 1.917969 -1.128906 1.917969 -0.867188 C 1.917969 -0.609375 1.832031 -0.390625 1.664062 -0.21875 C 1.496094 -0.046875 1.28125 0.0390625 1.027344 0.0390625 C 0.867188 0.0390625 0.71875 0.00390625 0.574219 -0.0703125 C 0.429688 -0.140625 0.320312 -0.246094 0.246094 -0.382812 C 0.171875 -0.523438 0.132812 -0.691406 0.132812 -0.886719 M 0.601562 -0.863281 C 0.601562 -0.691406 0.644531 -0.5625 0.722656 -0.46875 C 0.804688 -0.378906 0.90625 -0.332031 1.023438 -0.332031 C 1.144531 -0.332031 1.246094 -0.378906 1.324219 -0.46875 C 1.40625 -0.5625 1.445312 -0.695312 1.445312 -0.867188 C 1.445312 -1.035156 1.40625 -1.167969 1.324219 -1.257812 C 1.246094 -1.347656 1.144531 -1.394531 1.023438 -1.394531 C 0.90625 -1.394531 0.804688 -1.347656 0.722656 -1.257812 C 0.644531 -1.167969 0.601562 -1.035156 0.601562 -0.863281 Z "/>
</g>
<g id="glyph-0-2">
<path d="M 1.8125 0 L 1.355469 0 L 1.355469 -0.882812 C 1.355469 -1.070312 1.34375 -1.191406 1.324219 -1.246094 C 1.304688 -1.300781 1.273438 -1.339844 1.230469 -1.371094 C 1.1875 -1.402344 1.132812 -1.417969 1.070312 -1.417969 C 0.992188 -1.417969 0.921875 -1.394531 0.859375 -1.351562 C 0.792969 -1.308594 0.75 -1.25 0.726562 -1.179688 C 0.703125 -1.109375 0.691406 -0.976562 0.691406 -0.78125 L 0.691406 0 L 0.234375 0 L 0.234375 -1.726562 L 0.660156 -1.726562 L 0.660156 -1.472656 C 0.8125 -1.667969 1 -1.765625 1.230469 -1.765625 C 1.332031 -1.765625 1.421875 -1.75 1.507812 -1.714844 C 1.589844 -1.675781 1.652344 -1.628906 1.695312 -1.574219 C 1.738281 -1.515625 1.769531 -1.453125 1.785156 -1.382812 C 1.804688 -1.308594 1.8125 -1.207031 1.8125 -1.074219 Z "/>
</g>
<g id="glyph-0-3">
<path d="M 0.078125 -0.492188 L 0.539062 -0.5625 C 0.554688 -0.472656 0.597656 -0.40625 0.65625 -0.359375 C 0.714844 -0.3125 0.800781 -0.292969 0.90625 -0.292969 C 1.023438 -0.292969 1.113281 -0.3125 1.171875 -0.355469 C 1.214844 -0.386719 1.234375 -0.425781 1.234375 -0.476562 C 1.234375 -0.511719 1.222656 -0.542969 1.203125 -0.566406 C 1.179688 -0.585938 1.128906 -0.605469 1.046875 -0.625 C 0.679688 -0.707031 0.445312 -0.78125 0.347656 -0.847656 C 0.210938 -0.941406 0.140625 -1.070312 0.140625 -1.238281 C 0.140625 -1.386719 0.199219 -1.511719 0.320312 -1.613281 C 0.4375 -1.714844 0.621094 -1.765625 0.867188 -1.765625 C 1.105469 -1.765625 1.28125 -1.730469 1.394531 -1.652344 C 1.511719 -1.574219 1.589844 -1.460938 1.632812 -1.308594 L 1.203125 -1.230469 C 1.183594 -1.296875 1.148438 -1.347656 1.097656 -1.386719 C 1.046875 -1.421875 0.972656 -1.4375 0.878906 -1.4375 C 0.757812 -1.4375 0.671875 -1.421875 0.617188 -1.386719 C 0.582031 -1.363281 0.566406 -1.332031 0.566406 -1.296875 C 0.566406 -1.261719 0.582031 -1.234375 0.613281 -1.210938 C 0.652344 -1.183594 0.796875 -1.140625 1.039062 -1.085938 C 1.28125 -1.027344 1.453125 -0.960938 1.550781 -0.878906 C 1.644531 -0.800781 1.691406 -0.6875 1.691406 -0.539062 C 1.691406 -0.382812 1.625 -0.246094 1.492188 -0.132812 C 1.363281 -0.0195312 1.164062 0.0390625 0.90625 0.0390625 C 0.671875 0.0390625 0.484375 -0.0078125 0.347656 -0.105469 C 0.210938 -0.199219 0.121094 -0.328125 0.078125 -0.492188 Z "/>
</g>
<g id="glyph-0-4">
<path d="M 1.242188 -0.550781 L 1.695312 -0.472656 C 1.636719 -0.304688 1.542969 -0.179688 1.417969 -0.09375 C 1.292969 -0.00390625 1.132812 0.0390625 0.945312 0.0390625 C 0.644531 0.0390625 0.421875 -0.0585938 0.277344 -0.253906 C 0.164062 -0.414062 0.105469 -0.613281 0.105469 -0.851562 C 0.105469 -1.136719 0.179688 -1.363281 0.332031 -1.523438 C 0.480469 -1.6875 0.667969 -1.765625 0.898438 -1.765625 C 1.15625 -1.765625 1.359375 -1.683594 1.507812 -1.511719 C 1.65625 -1.34375 1.726562 -1.082031 1.71875 -0.730469 L 0.574219 -0.730469 C 0.578125 -0.597656 0.613281 -0.492188 0.683594 -0.414062 C 0.753906 -0.339844 0.84375 -0.304688 0.949219 -0.304688 C 1.019531 -0.304688 1.082031 -0.320312 1.128906 -0.359375 C 1.179688 -0.398438 1.214844 -0.464844 1.242188 -0.550781 M 1.265625 -1.011719 C 1.261719 -1.144531 1.230469 -1.246094 1.164062 -1.3125 C 1.097656 -1.382812 1.019531 -1.417969 0.925781 -1.417969 C 0.828125 -1.417969 0.742188 -1.382812 0.679688 -1.308594 C 0.613281 -1.234375 0.582031 -1.136719 0.582031 -1.011719 Z "/>
</g>
<g id="glyph-0-5">
<path d="M 0.238281 -1.960938 L 0.238281 -2.386719 L 0.695312 -2.386719 L 0.695312 -1.960938 L 0.238281 -1.960938 M 0.238281 0 L 0.238281 -1.726562 L 0.695312 -1.726562 L 0.695312 0 Z "/>
</g>
<g id="glyph-0-6">
<path d="M 0.238281 0 L 0.238281 -2.386719 L 0.695312 -2.386719 L 0.695312 0 Z "/>
</g>
<g id="glyph-0-7">
</g>
<g id="glyph-0-8">
<path d="M 1.824219 0 L 1.398438 0 L 1.398438 -0.253906 C 1.328125 -0.15625 1.246094 -0.0820312 1.148438 -0.0351562 C 1.054688 0.015625 0.957031 0.0390625 0.859375 0.0390625 C 0.660156 0.0390625 0.492188 -0.0390625 0.347656 -0.199219 C 0.207031 -0.359375 0.136719 -0.585938 0.136719 -0.871094 C 0.136719 -1.164062 0.207031 -1.386719 0.34375 -1.539062 C 0.480469 -1.691406 0.65625 -1.765625 0.867188 -1.765625 C 1.058594 -1.765625 1.226562 -1.6875 1.367188 -1.527344 L 1.367188 -2.386719 L 1.824219 -2.386719 L 1.824219 0 M 0.605469 -0.902344 C 0.605469 -0.71875 0.628906 -0.582031 0.679688 -0.5 C 0.753906 -0.382812 0.855469 -0.320312 0.988281 -0.320312 C 1.09375 -0.320312 1.183594 -0.367188 1.257812 -0.457031 C 1.332031 -0.546875 1.367188 -0.679688 1.367188 -0.859375 C 1.367188 -1.054688 1.332031 -1.199219 1.261719 -1.285156 C 1.191406 -1.375 1.097656 -1.417969 0.984375 -1.417969 C 0.878906 -1.417969 0.785156 -1.375 0.714844 -1.289062 C 0.640625 -1.203125 0.605469 -1.074219 0.605469 -0.902344 Z "/>
</g>
<g id="glyph-0-9">
<path d="M 1.375 0 L 1.375 -0.257812 C 1.3125 -0.167969 1.230469 -0.09375 1.128906 -0.0390625 C 1.027344 0.0117188 0.917969 0.0390625 0.804688 0.0390625 C 0.6875 0.0390625 0.582031 0.0117188 0.492188 -0.0390625 C 0.398438 -0.0898438 0.332031 -0.160156 0.292969 -0.253906 C 0.25 -0.34375 0.230469 -0.472656 0.230469 -0.632812 L 0.230469 -1.726562 L 0.6875 -1.726562 L 0.6875 -0.933594 C 0.6875 -0.691406 0.695312 -0.542969 0.710938 -0.488281 C 0.730469 -0.433594 0.757812 -0.390625 0.804688 -0.355469 C 0.847656 -0.324219 0.90625 -0.308594 0.972656 -0.308594 C 1.050781 -0.308594 1.121094 -0.332031 1.183594 -0.375 C 1.246094 -0.417969 1.289062 -0.46875 1.308594 -0.53125 C 1.332031 -0.597656 1.34375 -0.75 1.34375 -1 L 1.34375 -1.726562 L 1.800781 -1.726562 L 1.800781 0 Z "/>
</g>
<g id="glyph-0-10">
<path d="M 0.230469 -1.960938 L 0.230469 -2.386719 L 0.6875 -2.386719 L 0.6875 -1.960938 L 0.230469 -1.960938 M 0.6875 -1.726562 L 0.6875 -0.0546875 C 0.6875 0.167969 0.671875 0.320312 0.644531 0.414062 C 0.613281 0.503906 0.558594 0.574219 0.476562 0.625 C 0.394531 0.675781 0.292969 0.703125 0.164062 0.703125 C 0.117188 0.703125 0.0703125 0.699219 0.015625 0.6875 C -0.0351562 0.679688 -0.09375 0.667969 -0.152344 0.652344 L -0.0742188 0.261719 C -0.0507812 0.265625 -0.03125 0.269531 -0.0117188 0.273438 C 0.0078125 0.273438 0.0234375 0.277344 0.0390625 0.277344 C 0.0859375 0.277344 0.125 0.265625 0.15625 0.246094 C 0.183594 0.226562 0.203125 0.203125 0.214844 0.175781 C 0.222656 0.144531 0.230469 0.0625 0.230469 -0.078125 L 0.230469 -1.726562 Z "/>
</g>
<g id="glyph-0-11">
<path d="M 0.675781 0 L 0.21875 0 L 0.21875 -1.726562 L 0.644531 -1.726562 L 0.644531 -1.484375 C 0.71875 -1.597656 0.78125 -1.675781 0.839844 -1.710938 C 0.898438 -1.75 0.964844 -1.765625 1.039062 -1.765625 C 1.140625 -1.765625 1.242188 -1.738281 1.339844 -1.679688 L 1.199219 -1.28125 C 1.121094 -1.332031 1.050781 -1.355469 0.984375 -1.355469 C 0.917969 -1.355469 0.863281 -1.339844 0.820312 -1.304688 C 0.777344 -1.269531 0.742188 -1.207031 0.714844 -1.113281 C 0.691406 -1.019531 0.675781 -0.828125 0.675781 -0.535156 Z "/>
</g>
</g>
</defs>
<g fill="rgb(98.431373%, 74.901961%, 14.117647%)" fill-opacity="1">
<use xlink:href="#glyph-0-0" x="30" y="23.017578"/>
<use xlink:href="#glyph-0-1" x="32" y="23.017578"/>
<use xlink:href="#glyph-0-2" x="34" y="23.017578"/>
<use xlink:href="#glyph-0-3" x="36" y="23.017578"/>
<use xlink:href="#glyph-0-4" x="38" y="23.017578"/>
<use xlink:href="#glyph-0-5" x="40" y="23.017578"/>
<use xlink:href="#glyph-0-6" x="41" y="23.017578"/>
<use xlink:href="#glyph-0-7" x="42" y="23.017578"/>
<use xlink:href="#glyph-0-8" x="43" y="23.017578"/>
<use xlink:href="#glyph-0-9" x="45" y="23.017578"/>
<use xlink:href="#glyph-0-7" x="47" y="23.017578"/>
<use xlink:href="#glyph-0-10" x="48" y="23.017578"/>
<use xlink:href="#glyph-0-1" x="49" y="23.017578"/>
<use xlink:href="#glyph-0-9" x="51" y="23.017578"/>
<use xlink:href="#glyph-0-11" x="53" y="23.017578"/>
</g>
</svg>
