<?xml version="1.0" encoding="UTF-8"?>
<svg xmlns="http://www.w3.org/2000/svg" xmlns:xlink="http://www.w3.org/1999/xlink" width="854" height="480" viewBox="0 0 854 480">
<defs>
<g>
<g id="glyph-0-0">
<path d="M 1.730469 -7.8125 L 5.574219 -8.136719 C 5.859375 -6.265625 6.519531 -4.859375 7.558594 -3.917969 C 8.597656 -2.972656 9.847656 -2.503906 11.3125 -2.503906 C 13.074219 -2.503906 14.566406 -3.167969 15.789062 -4.496094 C 17.007812 -5.824219 17.617188 -7.589844 17.617188 -9.785156 C 17.617188 -11.875 17.03125 -13.523438 15.859375 -14.730469 C 14.6875 -15.9375 13.148438 -16.539062 11.25 -16.539062 C 10.070312 -16.539062 9.007812 -16.273438 8.054688 -15.738281 C 7.105469 -15.199219 6.359375 -14.507812 5.820312 -13.652344 L 2.378906 -14.097656 L 5.269531 -29.417969 L 20.101562 -29.417969 L 20.101562 -25.917969 L 8.199219 -25.917969 L 6.59375 -17.902344 C 8.382812 -19.152344 10.261719 -19.773438 12.226562 -19.773438 C 14.832031 -19.773438 17.027344 -18.875 18.820312 -17.070312 C 20.609375 -15.265625 21.503906 -12.945312 21.503906 -10.113281 C 21.503906 -7.414062 20.71875 -5.078125 19.144531 -3.113281 C 17.230469 -0.699219 14.621094 0.507812 11.3125 0.507812 C 8.597656 0.507812 6.386719 -0.25 4.667969 -1.769531 C 2.953125 -3.289062 1.972656 -5.304688 1.730469 -7.8125 Z "/>
</g>
<g id="glyph-0-1">
<path d="M 1.972656 -25.917969 L 1.972656 -29.4375 L 21.28125 -29.4375 L 21.28125 -26.589844 C 19.382812 -24.570312 17.5 -21.882812 15.636719 -18.535156 C 13.769531 -15.183594 12.328125 -11.738281 11.3125 -8.199219 C 10.578125 -5.703125 10.113281 -2.96875 9.90625 0 L 6.144531 0 C 6.183594 -2.347656 6.644531 -5.179688 7.527344 -8.503906 C 8.410156 -11.828125 9.675781 -15.03125 11.320312 -18.117188 C 12.96875 -21.203125 14.722656 -23.804688 16.582031 -25.917969 Z "/>
</g>
<g id="glyph-0-2">
<path d="M 2.421875 -22.664062 C 2.421875 -24.792969 2.957031 -26.605469 4.027344 -28.097656 C 5.101562 -29.589844 6.652344 -30.335938 8.6875 -30.335938 C 10.558594 -30.335938 12.109375 -29.667969 13.335938 -28.332031 C 14.5625 -26.996094 15.175781 -25.03125 15.175781 -22.441406 C 15.175781 -19.917969 14.558594 -17.976562 13.316406 -16.613281 C 12.074219 -15.25 10.546875 -14.566406 8.726562 -14.566406 C 6.925781 -14.566406 5.421875 -15.238281 4.222656 -16.582031 C 3.019531 -17.925781 2.421875 -19.953125 2.421875 -22.664062 M 8.789062 -27.8125 C 7.878906 -27.8125 7.125 -27.417969 6.519531 -26.632812 C 5.917969 -25.84375 5.617188 -24.402344 5.617188 -22.296875 C 5.617188 -20.386719 5.921875 -19.039062 6.53125 -18.257812 C 7.140625 -17.480469 7.894531 -17.089844 8.789062 -17.089844 C 9.710938 -17.089844 10.472656 -17.484375 11.078125 -18.269531 C 11.679688 -19.054688 11.984375 -20.496094 11.984375 -22.582031 C 11.984375 -24.507812 11.679688 -25.863281 11.066406 -26.640625 C 10.457031 -27.421875 9.699219 -27.8125 8.789062 -27.8125 M 8.808594 1.097656 L 25.125 -30.335938 L 28.097656 -30.335938 L 11.839844 1.097656 L 8.808594 1.097656 M 21.707031 -7 C 21.707031 -9.140625 22.242188 -10.957031 23.316406 -12.441406 C 24.386719 -13.925781 25.945312 -14.667969 27.996094 -14.667969 C 29.867188 -14.667969 31.417969 -14 32.644531 -12.664062 C 33.871094 -11.328125 34.484375 -9.367188 34.484375 -6.773438 C 34.484375 -4.253906 33.863281 -2.308594 32.625 -0.945312 C 31.382812 0.417969 29.847656 1.097656 28.015625 1.097656 C 26.210938 1.097656 24.710938 0.425781 23.507812 -0.925781 C 22.308594 -2.273438 21.707031 -4.300781 21.707031 -7 M 28.097656 -12.144531 C 27.175781 -12.144531 26.410156 -11.753906 25.808594 -10.964844 C 25.203125 -10.179688 24.902344 -8.734375 24.902344 -6.632812 C 24.902344 -4.734375 25.207031 -3.390625 25.816406 -2.605469 C 26.429688 -1.816406 27.179688 -1.425781 28.078125 -1.425781 C 29.011719 -1.425781 29.78125 -1.816406 30.386719 -2.605469 C 30.988281 -3.390625 31.289062 -4.828125 31.289062 -6.917969 C 31.289062 -8.84375 30.984375 -10.195312 30.375 -10.976562 C 29.765625 -11.757812 29.003906 -12.144531 28.097656 -12.144531 Z "/>
</g>
</g>
</defs>
<g fill="rgb(65.882353%, 33.333333%, 96.862745%)" fill-opacity="1">
<use xlink:href="#glyph-0-0" x="30" y="57.71875"/>
<use xlink:href="#glyph-0-1" x="53" y="57.71875"/>
<use xlink:href="#glyph-0-2" x="76" y="57.71875"/>
</g>
</svg>
