<?xml version="1.0" encoding="UTF-8"?>
<svg xmlns="http://www.w3.org/2000/svg" xmlns:xlink="http://www.w3.org/1999/xlink" width="1080" height="1920" viewBox="0 0 1080 1920">
<defs>
<g>
<g id="glyph-0-0">
<path d="M 6.867188 -4.679688 L 6.867188 -6.078125 L 11.921875 -6.085938 L 11.921875 -1.660156 C 11.144531 -1.042969 10.347656 -0.578125 9.519531 -0.265625 C 8.695312 0.046875 7.851562 0.203125 6.980469 0.203125 C 5.808594 0.203125 4.746094 -0.046875 3.789062 -0.550781 C 2.832031 -1.050781 2.109375 -1.777344 1.621094 -2.726562 C 1.132812 -3.675781 0.886719 -4.734375 0.886719 -5.90625 C 0.886719 -7.070312 1.128906 -8.152344 1.617188 -9.160156 C 2.101562 -10.164062 2.800781 -10.914062 3.710938 -11.402344 C 4.621094 -11.890625 5.671875 -12.132812 6.859375 -12.132812 C 7.722656 -12.132812 8.503906 -11.992188 9.199219 -11.714844 C 9.898438 -11.433594 10.445312 -11.046875 10.839844 -10.546875 C 11.234375 -10.046875 11.535156 -9.398438 11.742188 -8.59375 L 10.320312 -8.203125 C 10.140625 -8.8125 9.917969 -9.289062 9.652344 -9.636719 C 9.386719 -9.984375 9.007812 -10.261719 8.511719 -10.46875 C 8.019531 -10.679688 7.46875 -10.78125 6.867188 -10.78125 C 6.148438 -10.78125 5.523438 -10.671875 4.996094 -10.453125 C 4.46875 -10.234375 4.046875 -9.945312 3.722656 -9.585938 C 3.398438 -9.226562 3.148438 -8.835938 2.96875 -8.40625 C 2.667969 -7.667969 2.515625 -6.867188 2.515625 -6.003906 C 2.515625 -4.941406 2.699219 -4.050781 3.0625 -3.335938 C 3.429688 -2.621094 3.964844 -2.089844 4.664062 -1.742188 C 5.363281 -1.394531 6.105469 -1.21875 6.894531 -1.21875 C 7.578125 -1.21875 8.242188 -1.351562 8.894531 -1.617188 C 9.546875 -1.878906 10.039062 -2.160156 10.375 -2.457031 L 10.375 -4.679688 Z "/>
</g>
<g id="glyph-0-1">
<path d="M 1.097656 0 L 1.097656 -11.929688 L 2.5625 -11.929688 L 2.5625 -7.648438 C 3.246094 -8.441406 4.109375 -8.835938 5.152344 -8.835938 C 5.792969 -8.835938 6.347656 -8.710938 6.820312 -8.460938 C 7.292969 -8.207031 7.628906 -7.859375 7.832031 -7.414062 C 8.035156 -6.96875 8.136719 -6.324219 8.136719 -5.476562 L 8.136719 0 L 6.671875 0 L 6.671875 -5.476562 C 6.671875 -6.210938 6.515625 -6.742188 6.195312 -7.074219 C 5.878906 -7.410156 5.429688 -7.578125 4.851562 -7.578125 C 4.417969 -7.578125 4.007812 -7.464844 3.625 -7.238281 C 3.242188 -7.011719 2.96875 -6.707031 2.808594 -6.324219 C 2.644531 -5.9375 2.5625 -5.40625 2.5625 -4.726562 L 2.5625 0 Z "/>
</g>
<g id="glyph-0-2">
<path d="M 0.554688 -4.320312 C 0.554688 -5.921875 1 -7.105469 1.886719 -7.878906 C 2.632812 -8.519531 3.539062 -8.835938 4.605469 -8.835938 C 5.792969 -8.835938 6.765625 -8.449219 7.519531 -7.671875 C 8.273438 -6.890625 8.652344 -5.816406 8.652344 -4.441406 C 8.652344 -3.332031 8.484375 -2.457031 8.148438 -1.820312 C 7.816406 -1.179688 7.332031 -0.6875 6.695312 -0.332031 C 6.054688 0.0195312 5.359375 0.195312 4.605469 0.195312 C 3.394531 0.195312 2.417969 -0.191406 1.671875 -0.96875 C 0.925781 -1.746094 0.554688 -2.863281 0.554688 -4.320312 M 2.058594 -4.320312 C 2.058594 -3.214844 2.300781 -2.386719 2.78125 -1.835938 C 3.265625 -1.285156 3.875 -1.007812 4.605469 -1.007812 C 5.332031 -1.007812 5.9375 -1.285156 6.421875 -1.839844 C 6.902344 -2.390625 7.144531 -3.234375 7.144531 -4.371094 C 7.144531 -5.4375 6.902344 -6.25 6.417969 -6.800781 C 5.929688 -7.351562 5.328125 -7.625 4.605469 -7.625 C 3.875 -7.625 3.265625 -7.351562 2.78125 -6.804688 C 2.300781 -6.253906 2.058594 -5.429688 2.058594 -4.320312 Z "/>
</g>
<g id="glyph-0-3">
<path d="M 0.511719 -2.578125 L 1.960938 -2.808594 C 2.042969 -2.226562 2.269531 -1.78125 2.640625 -1.472656 C 3.011719 -1.164062 3.53125 -1.007812 4.199219 -1.007812 C 4.871094 -1.007812 5.371094 -1.144531 5.695312 -1.421875 C 6.023438 -1.695312 6.183594 -2.015625 6.183594 -2.382812 C 6.183594 -2.714844 6.042969 -2.976562 5.753906 -3.164062 C 5.554688 -3.296875 5.054688 -3.460938 4.257812 -3.660156 C 3.183594 -3.933594 2.4375 -4.167969 2.023438 -4.367188 C 1.605469 -4.5625 1.292969 -4.839844 1.078125 -5.1875 C 0.863281 -5.539062 0.757812 -5.925781 0.757812 -6.347656 C 0.757812 -6.734375 0.84375 -7.089844 1.019531 -7.417969 C 1.199219 -7.746094 1.4375 -8.019531 1.742188 -8.234375 C 1.96875 -8.402344 2.28125 -8.546875 2.671875 -8.664062 C 3.066406 -8.78125 3.488281 -8.835938 3.9375 -8.835938 C 4.617188 -8.835938 5.210938 -8.738281 5.726562 -8.542969 C 6.238281 -8.347656 6.617188 -8.085938 6.859375 -7.75 C 7.105469 -7.417969 7.273438 -6.972656 7.363281 -6.414062 L 5.933594 -6.21875 C 5.867188 -6.664062 5.679688 -7.007812 5.367188 -7.257812 C 5.054688 -7.507812 4.613281 -7.632812 4.042969 -7.632812 C 3.371094 -7.632812 2.890625 -7.523438 2.605469 -7.300781 C 2.316406 -7.078125 2.171875 -6.816406 2.171875 -6.519531 C 2.171875 -6.328125 2.234375 -6.15625 2.351562 -6.003906 C 2.472656 -5.847656 2.660156 -5.71875 2.914062 -5.613281 C 3.058594 -5.5625 3.492188 -5.4375 4.207031 -5.242188 C 5.242188 -4.964844 5.964844 -4.738281 6.375 -4.5625 C 6.785156 -4.386719 7.105469 -4.128906 7.339844 -3.792969 C 7.574219 -3.457031 7.691406 -3.039062 7.691406 -2.539062 C 7.691406 -2.050781 7.546875 -1.589844 7.261719 -1.160156 C 6.976562 -0.726562 6.566406 -0.394531 6.03125 -0.160156 C 5.492188 0.078125 4.886719 0.195312 4.207031 0.195312 C 3.085938 0.195312 2.226562 -0.0390625 1.640625 -0.503906 C 1.050781 -0.972656 0.675781 -1.664062 0.511719 -2.578125 Z "/>
</g>
<g id="glyph-0-4">
<path d="M 4.296875 -1.308594 L 4.507812 -0.015625 C 4.097656 0.0703125 3.726562 0.113281 3.402344 0.113281 C 2.871094 0.113281 2.457031 0.03125 2.164062 -0.136719 C 1.871094 -0.304688 1.664062 -0.527344 1.546875 -0.800781 C 1.425781 -1.074219 1.367188 -1.652344 1.367188 -2.53125 L 1.367188 -7.503906 L 0.292969 -7.503906 L 0.292969 -8.640625 L 1.367188 -8.640625 L 1.367188 -10.78125 L 2.824219 -11.660156 L 2.824219 -8.640625 L 4.296875 -8.640625 L 4.296875 -7.503906 L 2.824219 -7.503906 L 2.824219 -2.449219 C 2.824219 -2.03125 2.851562 -1.761719 2.902344 -1.644531 C 2.953125 -1.523438 3.035156 -1.429688 3.152344 -1.359375 C 3.269531 -1.289062 3.4375 -1.253906 3.652344 -1.253906 C 3.816406 -1.253906 4.03125 -1.273438 4.296875 -1.308594 Z "/>
</g>
<g id="glyph-0-5">
<path d="M 1.238281 0 L 1.238281 -11.929688 L 3.613281 -11.929688 L 6.4375 -3.484375 C 6.699219 -2.695312 6.886719 -2.109375 7.007812 -1.71875 C 7.140625 -2.152344 7.355469 -2.789062 7.640625 -3.628906 L 10.496094 -11.929688 L 12.621094 -11.929688 L 12.621094 0 L 11.101562 0 L 11.101562 -9.984375 L 7.632812 0 L 6.210938 0 L 2.757812 -10.15625 L 2.757812 0 Z "/>
</g>
<g id="glyph-0-6">
<path d="M 7.015625 -2.78125 L 8.527344 -2.597656 C 8.289062 -1.710938 7.847656 -1.023438 7.203125 -0.535156 C 6.554688 -0.0507812 5.730469 0.195312 4.726562 0.195312 C 3.464844 0.195312 2.460938 -0.195312 1.722656 -0.972656 C 0.980469 -1.75 0.609375 -2.84375 0.609375 -4.246094 C 0.609375 -5.703125 0.984375 -6.832031 1.734375 -7.632812 C 2.480469 -8.4375 3.453125 -8.835938 4.648438 -8.835938 C 5.800781 -8.835938 6.746094 -8.445312 7.480469 -7.65625 C 8.210938 -6.871094 8.578125 -5.765625 8.578125 -4.335938 C 8.578125 -4.25 8.574219 -4.121094 8.570312 -3.945312 L 2.125 -3.945312 C 2.179688 -2.996094 2.445312 -2.269531 2.929688 -1.765625 C 3.414062 -1.261719 4.015625 -1.007812 4.734375 -1.007812 C 5.273438 -1.007812 5.730469 -1.148438 6.113281 -1.433594 C 6.492188 -1.714844 6.792969 -2.164062 7.015625 -2.78125 M 2.207031 -5.152344 L 7.03125 -5.152344 C 6.964844 -5.878906 6.78125 -6.421875 6.476562 -6.785156 C 6.011719 -7.351562 5.40625 -7.632812 4.664062 -7.632812 C 3.992188 -7.632812 3.425781 -7.410156 2.964844 -6.957031 C 2.507812 -6.507812 2.253906 -5.90625 2.207031 -5.152344 Z "/>
</g>
<g id="glyph-0-7">
<path d="M 1.082031 0 L 1.082031 -8.640625 L 2.402344 -8.640625 L 2.402344 -7.332031 C 2.738281 -7.945312 3.046875 -8.347656 3.332031 -8.542969 C 3.617188 -8.738281 3.929688 -8.835938 4.273438 -8.835938 C 4.765625 -8.835938 5.269531 -8.679688 5.777344 -8.367188 L 5.273438 -7.007812 C 4.914062 -7.21875 4.558594 -7.324219 4.199219 -7.324219 C 3.878906 -7.324219 3.589844 -7.226562 3.335938 -7.035156 C 3.082031 -6.84375 2.898438 -6.574219 2.792969 -6.234375 C 2.628906 -5.710938 2.546875 -5.144531 2.546875 -4.523438 L 2.546875 0 Z "/>
</g>
</g>
</defs>
<g fill="rgb(100%, 100%, 100%)" fill-opacity="1">
<use xlink:href="#glyph-0-0" x="30" y="35.086914"/>
<use xlink:href="#glyph-0-1" x="43" y="35.086914"/>
<use xlink:href="#glyph-0-2" x="52" y="35.086914"/>
<use xlink:href="#glyph-0-3" x="61" y="35.086914"/>
<use xlink:href="#glyph-0-4" x="69" y="35.086914"/>
<use xlink:href="#glyph-0-5" x="74" y="35.086914"/>
<use xlink:href="#glyph-0-6" x="88" y="35.086914"/>
<use xlink:href="#glyph-0-4" x="97" y="35.086914"/>
<use xlink:href="#glyph-0-6" x="102" y="35.086914"/>
<use xlink:href="#glyph-0-7" x="111" y="35.086914"/>
</g>
</svg>
